<svg xmlns="http://www.w3.org/2000/svg" viewBox="0 0 220 210"><rect width="220" height="210" fill="#f3efe6"/><polygon points="93.92,121.24 97.76,118.83 95.60,118.22 91.76,120.64" fill="rgb(196,185,161)" stroke="#5a5443" stroke-opacity=".15" stroke-width=".45" stroke-linejoin="round"/><polygon points="99.44,123.66 100.40,123.05 100.40,90.90 99.44,91.50 99.44,112.66" fill="rgb(83,93,101)" stroke="#5a5443" stroke-opacity=".15" stroke-width=".45" stroke-linejoin="round"/><polygon points="96.08,116.09 100.88,113.07 99.44,112.66 94.64,115.68" fill="rgb(136,121,155)" stroke="#5a5443" stroke-opacity=".15" stroke-width=".45" stroke-linejoin="round"/><polygon points="86.00,124.26 88.16,124.87 88.16,113.87 88.16,92.71 86.00,92.10" fill="rgb(90,102,111)" stroke="#5a5443" stroke-opacity=".15" stroke-width=".45" stroke-linejoin="round"/><polygon points="99.44,112.66 99.44,91.50 94.64,94.52 94.64,115.68" fill="rgb(83,93,101)" stroke="#5a5443" stroke-opacity=".15" stroke-width=".45" stroke-linejoin="round"/><polygon points="94.64,115.68 94.64,94.52 88.16,92.71 88.16,113.87" fill="rgb(90,102,111)" stroke="#5a5443" stroke-opacity=".15" stroke-width=".45" stroke-linejoin="round"/><polygon points="94.64,94.52 99.44,91.50 100.40,90.90 93.20,78.93" fill="rgb(119,105,135)" stroke="#5a5443" stroke-opacity=".15" stroke-width=".45" stroke-linejoin="round"/><polygon points="163.75,140.77 100.40,123.05 99.44,123.66 162.79,141.38" fill="rgb(196,185,161)" stroke="#5a5443" stroke-opacity=".15" stroke-width=".45" stroke-linejoin="round"/><polygon points="86.00,92.10 88.16,92.71 94.64,94.52 93.20,78.93" fill="rgb(135,119,153)" stroke="#5a5443" stroke-opacity=".15" stroke-width=".45" stroke-linejoin="round"/><polygon points="178.15,144.80 181.99,142.39 97.76,118.83 93.92,121.24 100.40,123.05 163.75,140.77 172.39,143.19" fill="rgb(196,185,161)" stroke="#5a5443" stroke-opacity=".15" stroke-width=".45" stroke-linejoin="round"/><polygon points="38.01,149.23 43.77,150.84 47.61,148.43 53.37,144.80 86.00,124.26 91.76,120.64 95.60,118.22 89.84,116.61" fill="rgb(196,185,161)" stroke="#5a5443" stroke-opacity=".15" stroke-width=".45" stroke-linejoin="round"/><polygon points="55.53,145.41 88.16,124.87 86.00,124.26 53.37,144.80" fill="rgb(196,185,161)" stroke="#5a5443" stroke-opacity=".15" stroke-width=".45" stroke-linejoin="round"/><polygon points="162.79,130.38 100.88,113.07 96.08,116.09 156.55,133.00 157.99,133.40" fill="rgb(136,121,155)" stroke="#5a5443" stroke-opacity=".15" stroke-width=".45" stroke-linejoin="round"/><polygon points="63.45,136.63 96.08,116.09 94.64,115.68 88.16,113.87 55.53,134.41 62.01,136.22" fill="rgb(136,121,155)" stroke="#5a5443" stroke-opacity=".15" stroke-width=".45" stroke-linejoin="round"/><polygon points="63.45,125.63 71.37,127.85 76.17,124.83 99.20,110.33 104.00,107.31 96.08,105.09" fill="rgb(196,185,161)" stroke="#5a5443" stroke-opacity=".15" stroke-width=".45" stroke-linejoin="round"/><polygon points="151.75,125.03 156.55,122.01 104.00,107.31 99.20,110.33 143.83,122.81" fill="rgb(196,185,161)" stroke="#5a5443" stroke-opacity=".15" stroke-width=".45" stroke-linejoin="round"/><polygon points="177.19,145.41 178.15,144.80 172.39,143.19 171.43,143.79" fill="rgb(196,185,161)" stroke="#5a5443" stroke-opacity=".15" stroke-width=".45" stroke-linejoin="round"/><polygon points="172.39,148.43 177.19,145.41 171.43,143.79 166.63,146.82" fill="rgb(196,185,161)" stroke="#5a5443" stroke-opacity=".15" stroke-width=".45" stroke-linejoin="round"/><polygon points="164.47,146.21 166.63,146.82 166.63,135.82 164.47,135.22" fill="rgb(90,102,111)" stroke="#5a5443" stroke-opacity=".15" stroke-width=".45" stroke-linejoin="round"/><polygon points="76.17,113.83 82.65,115.64 85.05,114.13 103.28,102.66 105.68,101.15 99.20,99.33" fill="rgb(136,121,155)" stroke="#5a5443" stroke-opacity=".15" stroke-width=".45" stroke-linejoin="round"/><polygon points="166.63,146.82 171.43,143.79 172.39,143.19 172.39,107.49 166.63,111.12 166.63,135.82" fill="rgb(83,93,101)" stroke="#5a5443" stroke-opacity=".15" stroke-width=".45" stroke-linejoin="round"/><polygon points="141.43,113.33 143.83,111.82 105.68,101.15 103.28,102.66 134.95,111.52" fill="rgb(136,121,155)" stroke="#5a5443" stroke-opacity=".15" stroke-width=".45" stroke-linejoin="round"/><polygon points="43.77,150.84 45.93,151.45 49.77,149.03 47.61,148.43" fill="rgb(196,185,161)" stroke="#5a5443" stroke-opacity=".15" stroke-width=".45" stroke-linejoin="round"/><polygon points="166.63,135.82 166.63,111.12 157.99,108.70 157.99,133.40 164.47,135.22" fill="rgb(90,102,111)" stroke="#5a5443" stroke-opacity=".15" stroke-width=".45" stroke-linejoin="round"/><polygon points="57.21,139.24 58.65,139.65 63.45,136.63 62.01,136.22" fill="rgb(136,121,155)" stroke="#5a5443" stroke-opacity=".15" stroke-width=".45" stroke-linejoin="round"/><polygon points="47.61,148.43 49.77,149.03 56.25,150.84 56.25,130.06 47.61,127.65" fill="rgb(90,102,111)" stroke="#5a5443" stroke-opacity=".15" stroke-width=".45" stroke-linejoin="round"/><polygon points="62.01,136.22 62.01,126.44 57.21,129.46 57.21,139.24" fill="rgb(83,93,101)" stroke="#5a5443" stroke-opacity=".15" stroke-width=".45" stroke-linejoin="round"/><polygon points="56.25,150.84 57.21,150.24 57.21,139.24 57.21,129.46 56.25,130.06" fill="rgb(83,93,101)" stroke="#5a5443" stroke-opacity=".15" stroke-width=".45" stroke-linejoin="round"/><polygon points="166.63,111.12 172.39,107.49 165.19,95.53" fill="rgb(119,105,135)" stroke="#5a5443" stroke-opacity=".15" stroke-width=".45" stroke-linejoin="round"/><polygon points="157.99,108.70 166.63,111.12 165.19,95.53" fill="rgb(135,119,153)" stroke="#5a5443" stroke-opacity=".15" stroke-width=".45" stroke-linejoin="round"/><polygon points="56.25,130.06 57.21,129.46 62.01,126.44 54.81,114.48" fill="rgb(119,105,135)" stroke="#5a5443" stroke-opacity=".15" stroke-width=".45" stroke-linejoin="round"/><polygon points="47.61,127.65 56.25,130.06 54.81,114.48" fill="rgb(135,119,153)" stroke="#5a5443" stroke-opacity=".15" stroke-width=".45" stroke-linejoin="round"/><polygon points="85.05,77.67 85.71,77.85 103.95,66.37 103.28,66.19" fill="rgb(196,185,161)" stroke="#5a5443" stroke-opacity=".15" stroke-width=".45" stroke-linejoin="round"/><polygon points="139.75,168.96 172.39,148.43 166.63,146.82 164.47,146.21 131.84,166.75 134.00,167.35" fill="rgb(196,185,161)" stroke="#5a5443" stroke-opacity=".15" stroke-width=".45" stroke-linejoin="round"/><polygon points="131.84,155.76 164.47,135.22 157.99,133.40 156.55,133.00 123.92,153.54 125.36,153.94" fill="rgb(136,121,155)" stroke="#5a5443" stroke-opacity=".15" stroke-width=".45" stroke-linejoin="round"/><polygon points="131.84,166.75 164.47,146.21 164.47,135.22 131.84,155.76" fill="rgb(119,105,135)" stroke="#5a5443" stroke-opacity=".15" stroke-width=".45" stroke-linejoin="round"/><polygon points="38.01,160.23 130.16,186.00 130.16,175.01 45.93,151.45 43.77,150.84 38.01,149.23" fill="rgb(187,176,153)" stroke="#5a5443" stroke-opacity=".15" stroke-width=".45" stroke-linejoin="round"/><polygon points="128.72,139.53 151.75,125.03 143.83,122.81 120.80,137.31" fill="rgb(196,185,161)" stroke="#5a5443" stroke-opacity=".15" stroke-width=".45" stroke-linejoin="round"/><polygon points="123.20,124.81 141.43,113.33 134.95,111.52 116.72,122.99" fill="rgb(136,121,155)" stroke="#5a5443" stroke-opacity=".15" stroke-width=".45" stroke-linejoin="round"/><polygon points="130.16,186.00 181.99,153.38 181.99,142.39 178.15,144.80 177.19,145.41 172.39,148.43 139.75,168.96 134.95,171.99 134.00,172.59 130.16,175.01" fill="rgb(171,162,140)" stroke="#5a5443" stroke-opacity=".15" stroke-width=".45" stroke-linejoin="round"/><polygon points="76.17,124.83 120.80,137.31 120.80,126.32 82.65,115.64 76.17,113.83" fill="rgb(130,115,147)" stroke="#5a5443" stroke-opacity=".15" stroke-width=".45" stroke-linejoin="round"/><polygon points="120.80,137.31 143.83,122.81 143.83,111.82 141.43,113.33 123.20,124.81 120.80,126.32" fill="rgb(119,105,135)" stroke="#5a5443" stroke-opacity=".15" stroke-width=".45" stroke-linejoin="round"/><polygon points="137.11,80.71 139.99,78.90 132.80,71.77 134.29,74.86 134.95,76.24" fill="rgb(122,108,139)" stroke="#5a5443" stroke-opacity=".15" stroke-width=".45" stroke-linejoin="round"/><polygon points="57.21,150.24 120.56,167.96 120.56,156.96 58.65,139.65 57.21,139.24" fill="rgb(130,115,147)" stroke="#5a5443" stroke-opacity=".15" stroke-width=".45" stroke-linejoin="round"/><polygon points="120.56,167.96 57.21,150.24 56.25,150.84 119.60,168.56" fill="rgb(196,185,161)" stroke="#5a5443" stroke-opacity=".15" stroke-width=".45" stroke-linejoin="round"/><polygon points="123.92,143.75 123.92,142.55 71.37,127.85 63.45,125.63 63.45,126.84" fill="rgb(187,176,153)" stroke="#5a5443" stroke-opacity=".15" stroke-width=".45" stroke-linejoin="round"/><polygon points="63.45,136.63 123.92,153.54 123.92,143.75 63.45,126.84" fill="rgb(187,176,153)" stroke="#5a5443" stroke-opacity=".15" stroke-width=".45" stroke-linejoin="round"/><polygon points="123.92,153.54 156.55,133.00 156.55,122.01 151.75,125.03 128.72,139.53 123.92,142.55 123.92,143.75" fill="rgb(171,162,140)" stroke="#5a5443" stroke-opacity=".15" stroke-width=".45" stroke-linejoin="round"/><polygon points="134.95,111.52 134.95,80.10 116.72,91.58 116.72,122.99" fill="rgb(171,162,140)" stroke="#5a5443" stroke-opacity=".15" stroke-width=".45" stroke-linejoin="round"/><polygon points="82.65,115.64 120.80,126.32 123.20,124.81 116.72,122.99 85.05,114.13" fill="rgb(136,121,155)" stroke="#5a5443" stroke-opacity=".15" stroke-width=".45" stroke-linejoin="round"/><polygon points="71.37,127.85 123.92,142.55 128.72,139.53 120.80,137.31 76.17,124.83" fill="rgb(196,185,161)" stroke="#5a5443" stroke-opacity=".15" stroke-width=".45" stroke-linejoin="round"/><polygon points="58.65,139.65 120.56,156.96 125.36,153.94 123.92,153.54 63.45,136.63" fill="rgb(136,121,155)" stroke="#5a5443" stroke-opacity=".15" stroke-width=".45" stroke-linejoin="round"/><polygon points="85.71,77.85 85.05,77.67 85.05,78.86" fill="rgb(187,176,153)" stroke="#5a5443" stroke-opacity=".15" stroke-width=".45" stroke-linejoin="round"/><polygon points="116.72,122.99 116.72,91.58 85.05,82.72 85.05,114.13" fill="rgb(187,176,153)" stroke="#5a5443" stroke-opacity=".15" stroke-width=".45" stroke-linejoin="round"/><polygon points="80.01,83.93 82.17,84.53 83.61,79.76" fill="rgb(137,121,155)" stroke="#5a5443" stroke-opacity=".15" stroke-width=".45" stroke-linejoin="round"/><polygon points="45.93,151.45 130.16,175.01 134.00,172.59 128.24,170.98 119.60,168.56 56.25,150.84 49.77,149.03" fill="rgb(196,185,161)" stroke="#5a5443" stroke-opacity=".15" stroke-width=".45" stroke-linejoin="round"/><polygon points="118.88,92.19 137.11,80.71 134.95,76.24 116.72,87.72" fill="rgb(122,108,139)" stroke="#5a5443" stroke-opacity=".15" stroke-width=".45" stroke-linejoin="round"/><polygon points="134.95,76.24 134.95,75.05 116.72,86.53 116.72,87.72" fill="rgb(171,162,140)" stroke="#5a5443" stroke-opacity=".15" stroke-width=".45" stroke-linejoin="round"/><polygon points="116.05,86.34 116.72,86.53 134.95,75.05 134.29,74.86" fill="rgb(196,185,161)" stroke="#5a5443" stroke-opacity=".15" stroke-width=".45" stroke-linejoin="round"/><polygon points="134.29,74.86 132.80,71.77 110.00,49.20 114.56,83.25 116.05,86.34" fill="rgb(122,108,139)" stroke="#5a5443" stroke-opacity=".15" stroke-width=".45" stroke-linejoin="round"/><polygon points="82.17,84.53 116.00,94.00 114.56,83.25 87.20,75.59 83.61,79.76" fill="rgb(137,121,155)" stroke="#5a5443" stroke-opacity=".15" stroke-width=".45" stroke-linejoin="round"/><polygon points="114.56,83.25 110.00,49.20 87.20,75.59" fill="rgb(137,121,155)" stroke="#5a5443" stroke-opacity=".15" stroke-width=".45" stroke-linejoin="round"/><polygon points="134.95,171.99 139.75,168.96 134.00,167.35 129.20,170.37" fill="rgb(196,185,161)" stroke="#5a5443" stroke-opacity=".15" stroke-width=".45" stroke-linejoin="round"/><polygon points="116.72,87.72 116.72,86.53 116.05,86.34" fill="rgb(187,176,153)" stroke="#5a5443" stroke-opacity=".15" stroke-width=".45" stroke-linejoin="round"/><polygon points="116.00,94.00 118.88,92.19 116.72,87.72 116.05,86.34 114.56,83.25" fill="rgb(122,108,139)" stroke="#5a5443" stroke-opacity=".15" stroke-width=".45" stroke-linejoin="round"/><polygon points="134.00,172.59 134.95,171.99 129.20,170.37 128.24,170.98" fill="rgb(196,185,161)" stroke="#5a5443" stroke-opacity=".15" stroke-width=".45" stroke-linejoin="round"/><polygon points="128.24,170.98 129.20,170.37 134.00,167.35 134.00,156.36 134.00,133.73 128.24,137.36" fill="rgb(83,93,101)" stroke="#5a5443" stroke-opacity=".15" stroke-width=".45" stroke-linejoin="round"/><polygon points="119.60,168.56 128.24,170.98 128.24,137.36 119.60,134.94" fill="rgb(90,102,111)" stroke="#5a5443" stroke-opacity=".15" stroke-width=".45" stroke-linejoin="round"/><polygon points="128.24,137.36 134.00,133.73 126.80,121.77" fill="rgb(119,105,135)" stroke="#5a5443" stroke-opacity=".15" stroke-width=".45" stroke-linejoin="round"/><polygon points="119.60,134.94 128.24,137.36 126.80,121.77" fill="rgb(135,119,153)" stroke="#5a5443" stroke-opacity=".15" stroke-width=".45" stroke-linejoin="round"/></svg>