<svg xmlns="http://www.w3.org/2000/svg" viewBox="0 0 220 210"><rect width="220" height="210" fill="#f3efe6"/><polygon points="42.68,148.73 82.56,123.63 82.56,83.45 64.71,94.68 60.53,97.32 42.68,108.55" fill="rgb(97,126,102)" stroke="#5a5443" stroke-opacity=".15" stroke-width=".45" stroke-linejoin="round"/><polygon points="82.56,83.45 82.56,36.43 64.71,47.66 64.71,87.84 64.71,94.68" fill="rgb(97,126,102)" stroke="#5a5443" stroke-opacity=".15" stroke-width=".45" stroke-linejoin="round"/><polygon points="85.62,163.44 98.94,167.17 107.83,161.58 115.15,156.97 124.03,151.38 110.70,147.65" fill="rgb(95,107,117)" stroke="#5a5443" stroke-opacity=".15" stroke-width=".45" stroke-linejoin="round"/><polygon points="139.45,163.77 148.33,158.18 124.03,151.38 115.15,156.97 126.12,160.04" fill="rgb(95,107,117)" stroke="#5a5443" stroke-opacity=".15" stroke-width=".45" stroke-linejoin="round"/><polygon points="64.71,47.66 60.53,50.30 60.53,90.47 64.71,87.84" fill="rgb(97,126,102)" stroke="#5a5443" stroke-opacity=".15" stroke-width=".45" stroke-linejoin="round"/><polygon points="60.53,90.47 99.20,101.29 103.39,98.66 64.71,87.84" fill="rgb(95,107,117)" stroke="#5a5443" stroke-opacity=".15" stroke-width=".45" stroke-linejoin="round"/><polygon points="60.53,97.32 99.20,108.13 99.20,101.29 60.53,90.47" fill="rgb(90,102,111)" stroke="#5a5443" stroke-opacity=".15" stroke-width=".45" stroke-linejoin="round"/><polygon points="132.13,168.37 139.45,163.77 126.12,160.04 118.80,164.65" fill="rgb(95,107,117)" stroke="#5a5443" stroke-opacity=".15" stroke-width=".45" stroke-linejoin="round"/><polygon points="27.00,57.15 42.68,61.53 60.53,50.30 64.71,47.66 82.56,36.43 66.88,32.04" fill="rgb(112,145,118)" stroke="#5a5443" stroke-opacity=".15" stroke-width=".45" stroke-linejoin="round"/><polygon points="126.12,160.04 126.12,130.96 118.80,135.57 118.80,164.65" fill="rgb(83,93,101)" stroke="#5a5443" stroke-opacity=".15" stroke-width=".45" stroke-linejoin="round"/><polygon points="123.25,182.52 148.33,166.73 148.33,158.18 139.45,163.77 132.13,168.37 123.25,173.97" fill="rgb(83,93,101)" stroke="#5a5443" stroke-opacity=".15" stroke-width=".45" stroke-linejoin="round"/><polygon points="118.80,164.65 118.80,135.57 107.83,132.50 107.83,161.58" fill="rgb(90,102,111)" stroke="#5a5443" stroke-opacity=".15" stroke-width=".45" stroke-linejoin="round"/><polygon points="123.51,90.70 131.87,85.44 131.87,70.04 123.51,75.31 123.51,76.16" fill="rgb(83,93,101)" stroke="#5a5443" stroke-opacity=".15" stroke-width=".45" stroke-linejoin="round"/><polygon points="60.53,50.30 42.68,61.53 42.68,108.55 60.53,97.32 60.53,90.47" fill="rgb(97,126,102)" stroke="#5a5443" stroke-opacity=".15" stroke-width=".45" stroke-linejoin="round"/><polygon points="110.44,73.55 121.42,76.62 123.51,75.31 131.87,70.04 120.89,66.97 112.53,72.24" fill="rgb(95,107,117)" stroke="#5a5443" stroke-opacity=".15" stroke-width=".45" stroke-linejoin="round"/><polygon points="98.94,167.17 123.25,173.97 132.13,168.37 118.80,164.65 107.83,161.58" fill="rgb(95,107,117)" stroke="#5a5443" stroke-opacity=".15" stroke-width=".45" stroke-linejoin="round"/><polygon points="27.00,144.34 42.68,148.73 42.68,108.55 42.68,61.53 27.00,57.15" fill="rgb(106,138,112)" stroke="#5a5443" stroke-opacity=".15" stroke-width=".45" stroke-linejoin="round"/><polygon points="85.62,171.99 123.25,182.52 123.25,173.97 98.94,167.17 85.62,163.44" fill="rgb(90,102,111)" stroke="#5a5443" stroke-opacity=".15" stroke-width=".45" stroke-linejoin="round"/><polygon points="121.42,77.48 121.42,76.62 110.44,73.55 110.44,74.41" fill="rgb(90,102,111)" stroke="#5a5443" stroke-opacity=".15" stroke-width=".45" stroke-linejoin="round"/><polygon points="123.51,76.16 123.51,75.31 121.42,76.62 121.42,77.48" fill="rgb(83,93,101)" stroke="#5a5443" stroke-opacity=".15" stroke-width=".45" stroke-linejoin="round"/><polygon points="131.35,78.35 123.51,76.16 121.42,77.48 129.26,79.67" fill="rgb(196,185,161)" stroke="#5a5443" stroke-opacity=".15" stroke-width=".45" stroke-linejoin="round"/><polygon points="142.32,95.96 150.68,90.70 150.68,75.31 142.32,80.57 142.32,81.42" fill="rgb(83,93,101)" stroke="#5a5443" stroke-opacity=".15" stroke-width=".45" stroke-linejoin="round"/><polygon points="129.26,78.81 140.23,81.88 142.32,80.57 150.68,75.31 139.71,72.24 131.35,77.50" fill="rgb(95,107,117)" stroke="#5a5443" stroke-opacity=".15" stroke-width=".45" stroke-linejoin="round"/><polygon points="90.84,86.03 91.63,86.25 93.72,84.93 109.40,75.06 110.44,74.41 112.53,73.09 111.75,72.87 103.39,78.13 99.20,80.77" fill="rgb(196,185,161)" stroke="#5a5443" stroke-opacity=".15" stroke-width=".45" stroke-linejoin="round"/><polygon points="139.97,83.62 141.02,82.96 140.23,82.74 129.26,79.67 121.42,77.48 110.44,74.41 109.40,75.06 113.32,76.16 135.27,82.30" fill="rgb(196,185,161)" stroke="#5a5443" stroke-opacity=".15" stroke-width=".45" stroke-linejoin="round"/><polygon points="122.20,142.69 128.99,138.42 136.31,133.81 143.11,129.54 143.11,109.01 134.74,114.27 130.56,116.91 122.20,122.17" fill="rgb(171,162,140)" stroke="#5a5443" stroke-opacity=".15" stroke-width=".45" stroke-linejoin="round"/><polygon points="90.84,133.92 91.63,134.14 91.63,100.79 91.63,86.25 90.84,86.03 90.84,113.40" fill="rgb(187,176,153)" stroke="#5a5443" stroke-opacity=".15" stroke-width=".45" stroke-linejoin="round"/><polygon points="140.23,82.74 140.23,81.88 129.26,78.81 129.26,79.67" fill="rgb(90,102,111)" stroke="#5a5443" stroke-opacity=".15" stroke-width=".45" stroke-linejoin="round"/><polygon points="113.32,76.16 109.40,75.06 93.72,84.93 97.64,86.03 98.68,85.37" fill="rgb(196,185,161)" stroke="#5a5443" stroke-opacity=".15" stroke-width=".45" stroke-linejoin="round"/><polygon points="143.11,109.01 143.11,96.18 143.11,81.64 141.02,82.96 139.97,83.62 134.74,86.91 134.74,107.43 134.74,114.27" fill="rgb(171,162,140)" stroke="#5a5443" stroke-opacity=".15" stroke-width=".45" stroke-linejoin="round"/><polygon points="142.32,81.42 142.32,80.57 140.23,81.88 140.23,82.74" fill="rgb(83,93,101)" stroke="#5a5443" stroke-opacity=".15" stroke-width=".45" stroke-linejoin="round"/><polygon points="141.02,82.96 143.11,81.64 142.32,81.42 140.23,82.74" fill="rgb(196,185,161)" stroke="#5a5443" stroke-opacity=".15" stroke-width=".45" stroke-linejoin="round"/><polygon points="91.63,134.14 101.03,136.77 122.20,142.69 122.20,122.17 122.20,109.34 121.42,109.12 110.44,106.05 102.60,103.86 91.63,100.79" fill="rgb(187,176,153)" stroke="#5a5443" stroke-opacity=".15" stroke-width=".45" stroke-linejoin="round"/><polygon points="134.74,86.91 130.56,89.54 130.56,110.06 134.74,107.43" fill="rgb(171,162,140)" stroke="#5a5443" stroke-opacity=".15" stroke-width=".45" stroke-linejoin="round"/><polygon points="130.56,110.06 155.29,116.98 159.47,114.35 134.74,107.43" fill="rgb(95,107,117)" stroke="#5a5443" stroke-opacity=".15" stroke-width=".45" stroke-linejoin="round"/><polygon points="130.56,116.91 155.29,123.82 155.29,116.98 130.56,110.06" fill="rgb(90,102,111)" stroke="#5a5443" stroke-opacity=".15" stroke-width=".45" stroke-linejoin="round"/><polygon points="104.69,88.00 104.69,87.15 102.60,88.46 102.60,89.32" fill="rgb(83,93,101)" stroke="#5a5443" stroke-opacity=".15" stroke-width=".45" stroke-linejoin="round"/><polygon points="110.44,91.51 102.60,89.32 102.60,103.86 110.44,106.05" fill="rgb(187,176,153)" stroke="#5a5443" stroke-opacity=".15" stroke-width=".45" stroke-linejoin="round"/><polygon points="98.68,85.37 97.64,86.03 104.69,88.00 112.53,90.20 119.59,92.17 120.63,91.51" fill="rgb(196,185,161)" stroke="#5a5443" stroke-opacity=".15" stroke-width=".45" stroke-linejoin="round"/><polygon points="120.63,91.51 135.27,82.30 116.97,40.54" fill="rgb(97,126,102)" stroke="#5a5443" stroke-opacity=".15" stroke-width=".45" stroke-linejoin="round"/><polygon points="124.29,93.49 130.56,89.54 134.74,86.91 139.97,83.62 135.27,82.30 120.63,91.51 119.59,92.17 123.51,93.27" fill="rgb(196,185,161)" stroke="#5a5443" stroke-opacity=".15" stroke-width=".45" stroke-linejoin="round"/><polygon points="83.26,90.66 94.24,93.73 102.60,88.46 104.69,87.15 93.72,84.08 91.63,85.39" fill="rgb(95,107,117)" stroke="#5a5443" stroke-opacity=".15" stroke-width=".45" stroke-linejoin="round"/><polygon points="130.56,89.54 124.29,93.49 122.20,94.80 122.20,109.34 122.20,122.17 130.56,116.91 130.56,110.06" fill="rgb(171,162,140)" stroke="#5a5443" stroke-opacity=".15" stroke-width=".45" stroke-linejoin="round"/><polygon points="102.60,89.32 110.44,91.51 112.53,90.20 104.69,88.00" fill="rgb(196,185,161)" stroke="#5a5443" stroke-opacity=".15" stroke-width=".45" stroke-linejoin="round"/><polygon points="98.68,85.37 120.63,91.51 116.97,40.54" fill="rgb(110,142,116)" stroke="#5a5443" stroke-opacity=".15" stroke-width=".45" stroke-linejoin="round"/><polygon points="94.24,109.12 102.60,103.86 102.60,89.32 102.60,88.46 94.24,93.73" fill="rgb(83,93,101)" stroke="#5a5443" stroke-opacity=".15" stroke-width=".45" stroke-linejoin="round"/><polygon points="83.26,106.05 94.24,109.12 94.24,93.73 83.26,90.66" fill="rgb(90,102,111)" stroke="#5a5443" stroke-opacity=".15" stroke-width=".45" stroke-linejoin="round"/><polygon points="122.20,109.34 122.20,94.80 121.42,94.58 121.42,109.12" fill="rgb(187,176,153)" stroke="#5a5443" stroke-opacity=".15" stroke-width=".45" stroke-linejoin="round"/><polygon points="123.51,93.27 123.51,92.41 121.42,93.73 121.42,94.58" fill="rgb(83,93,101)" stroke="#5a5443" stroke-opacity=".15" stroke-width=".45" stroke-linejoin="round"/><polygon points="121.42,94.58 122.20,94.80 124.29,93.49 123.51,93.27" fill="rgb(196,185,161)" stroke="#5a5443" stroke-opacity=".15" stroke-width=".45" stroke-linejoin="round"/><polygon points="159.62,165.24 186.49,148.32 186.49,81.71 159.62,98.62" fill="rgb(97,126,102)" stroke="#5a5443" stroke-opacity=".15" stroke-width=".45" stroke-linejoin="round"/><polygon points="102.08,95.92 113.05,98.99 121.42,93.73 123.51,92.41 112.53,89.34 110.44,90.66" fill="rgb(95,107,117)" stroke="#5a5443" stroke-opacity=".15" stroke-width=".45" stroke-linejoin="round"/><polygon points="113.05,114.38 121.42,109.12 121.42,94.58 121.42,93.73 113.05,98.99" fill="rgb(83,93,101)" stroke="#5a5443" stroke-opacity=".15" stroke-width=".45" stroke-linejoin="round"/><polygon points="102.08,111.31 113.05,114.38 113.05,98.99 102.08,95.92" fill="rgb(90,102,111)" stroke="#5a5443" stroke-opacity=".15" stroke-width=".45" stroke-linejoin="round"/><polygon points="143.94,94.23 159.62,98.62 186.49,81.71 170.82,77.32 159.47,84.46 155.29,87.09" fill="rgb(112,145,118)" stroke="#5a5443" stroke-opacity=".15" stroke-width=".45" stroke-linejoin="round"/><polygon points="143.94,160.85 159.62,165.24 159.62,98.62 143.94,94.23 143.94,130.96" fill="rgb(106,138,112)" stroke="#5a5443" stroke-opacity=".15" stroke-width=".45" stroke-linejoin="round"/></svg>