<svg xmlns="http://www.w3.org/2000/svg" viewBox="0 0 220 210"><rect width="220" height="210" fill="#f3efe6"/><polygon points="124.36,159.21 133.50,153.46 100.20,144.14 91.06,149.90 93.02,150.45 110.65,155.38" fill="rgb(196,185,161)" stroke="#5a5443" stroke-opacity=".15" stroke-width=".45" stroke-linejoin="round"/><polygon points="55.16,160.03 68.87,163.87 78.01,158.11 91.06,149.90 100.20,144.14 86.49,140.31" fill="rgb(196,185,161)" stroke="#5a5443" stroke-opacity=".15" stroke-width=".45" stroke-linejoin="round"/><polygon points="91.06,97.76 100.20,92.01 62.50,81.46 53.36,87.22 72.94,92.70" fill="rgb(196,185,161)" stroke="#5a5443" stroke-opacity=".15" stroke-width=".45" stroke-linejoin="round"/><polygon points="29.20,100.64 31.16,101.19 40.30,95.43 53.36,87.22 62.50,81.46 60.54,80.92" fill="rgb(196,185,161)" stroke="#5a5443" stroke-opacity=".15" stroke-width=".45" stroke-linejoin="round"/><polygon points="70.58,71.79 72.94,70.30 53.36,64.82 50.99,66.31 54.54,67.30 67.03,70.79" fill="rgb(187,150,85)" stroke="#5a5443" stroke-opacity=".15" stroke-width=".45" stroke-linejoin="round"/><polygon points="72.94,79.88 72.94,70.30 70.58,71.79" fill="rgb(164,131,73)" stroke="#5a5443" stroke-opacity=".15" stroke-width=".45" stroke-linejoin="round"/><polygon points="108.69,102.70 117.83,96.94 100.20,92.01 91.06,97.76 93.02,98.31" fill="rgb(196,185,161)" stroke="#5a5443" stroke-opacity=".15" stroke-width=".45" stroke-linejoin="round"/><polygon points="110.65,155.38 110.65,142.56 97.59,150.77 97.59,163.59" fill="rgb(83,93,101)" stroke="#5a5443" stroke-opacity=".15" stroke-width=".45" stroke-linejoin="round"/><polygon points="40.30,73.04 43.85,74.03 46.22,72.54 54.54,67.30 50.99,66.31" fill="rgb(187,150,85)" stroke="#5a5443" stroke-opacity=".15" stroke-width=".45" stroke-linejoin="round"/><polygon points="111.30,167.43 124.36,159.21 110.65,155.38 97.59,163.59" fill="rgb(196,185,161)" stroke="#5a5443" stroke-opacity=".15" stroke-width=".45" stroke-linejoin="round"/><polygon points="72.94,92.70 72.94,79.88 59.89,88.09 59.89,100.91" fill="rgb(164,131,73)" stroke="#5a5443" stroke-opacity=".15" stroke-width=".45" stroke-linejoin="round"/><polygon points="108.69,111.24 117.83,105.49 117.83,96.94 108.69,102.70" fill="rgb(171,162,140)" stroke="#5a5443" stroke-opacity=".15" stroke-width=".45" stroke-linejoin="round"/><polygon points="102.16,186.00 133.50,166.28 133.50,153.46 124.36,159.21 111.30,167.43 102.16,173.18" fill="rgb(171,162,140)" stroke="#5a5443" stroke-opacity=".15" stroke-width=".45" stroke-linejoin="round"/><polygon points="97.59,163.59 97.59,150.77 79.97,145.84 79.97,158.66" fill="rgb(90,102,111)" stroke="#5a5443" stroke-opacity=".15" stroke-width=".45" stroke-linejoin="round"/><polygon points="78.01,105.98 91.06,97.76 72.94,92.70 59.89,100.91" fill="rgb(196,185,161)" stroke="#5a5443" stroke-opacity=".15" stroke-width=".45" stroke-linejoin="round"/><polygon points="78.01,114.53 78.01,158.11 79.97,158.66 79.97,145.84 79.97,137.30 79.97,115.08" fill="rgb(90,102,111)" stroke="#5a5443" stroke-opacity=".15" stroke-width=".45" stroke-linejoin="round"/><polygon points="59.89,100.91 59.89,88.09 40.30,82.62 40.30,95.43" fill="rgb(178,143,80)" stroke="#5a5443" stroke-opacity=".15" stroke-width=".45" stroke-linejoin="round"/><polygon points="43.85,74.03 40.30,73.04 40.30,82.62" fill="rgb(178,143,80)" stroke="#5a5443" stroke-opacity=".15" stroke-width=".45" stroke-linejoin="round"/><polygon points="159.41,147.65 168.55,141.90 102.16,123.33 93.02,129.08 110.65,134.01 137.87,141.62 157.46,147.10" fill="rgb(196,185,161)" stroke="#5a5443" stroke-opacity=".15" stroke-width=".45" stroke-linejoin="round"/><polygon points="68.87,163.87 102.16,173.18 111.30,167.43 97.59,163.59 79.97,158.66 78.01,158.11" fill="rgb(196,185,161)" stroke="#5a5443" stroke-opacity=".15" stroke-width=".45" stroke-linejoin="round"/><polygon points="72.94,79.88 70.58,71.79 59.89,78.51 59.89,88.09" fill="rgb(164,131,73)" stroke="#5a5443" stroke-opacity=".15" stroke-width=".45" stroke-linejoin="round"/><polygon points="67.03,70.79 56.62,54.81 58.70,76.03" fill="rgb(164,131,73)" stroke="#5a5443" stroke-opacity=".15" stroke-width=".45" stroke-linejoin="round"/><polygon points="55.16,172.85 102.16,186.00 102.16,173.18 68.87,163.87 55.16,160.03" fill="rgb(187,176,153)" stroke="#5a5443" stroke-opacity=".15" stroke-width=".45" stroke-linejoin="round"/><polygon points="58.70,76.03 56.62,54.81 46.22,72.54" fill="rgb(186,149,84)" stroke="#5a5443" stroke-opacity=".15" stroke-width=".45" stroke-linejoin="round"/><polygon points="59.89,88.09 56.34,77.52 43.85,74.03 40.30,82.62" fill="rgb(178,143,80)" stroke="#5a5443" stroke-opacity=".15" stroke-width=".45" stroke-linejoin="round"/><polygon points="56.34,77.52 59.89,78.51 70.58,71.79 67.03,70.79 58.70,76.03" fill="rgb(187,150,85)" stroke="#5a5443" stroke-opacity=".15" stroke-width=".45" stroke-linejoin="round"/><polygon points="43.85,74.03 56.34,77.52 58.70,76.03 46.22,72.54" fill="rgb(187,150,85)" stroke="#5a5443" stroke-opacity=".15" stroke-width=".45" stroke-linejoin="round"/><polygon points="31.16,101.19 68.87,111.73 78.01,105.98 59.89,100.91 40.30,95.43" fill="rgb(196,185,161)" stroke="#5a5443" stroke-opacity=".15" stroke-width=".45" stroke-linejoin="round"/><polygon points="137.87,141.62 110.65,134.01 97.59,142.23 124.81,149.84" fill="rgb(196,185,161)" stroke="#5a5443" stroke-opacity=".15" stroke-width=".45" stroke-linejoin="round"/><polygon points="59.89,88.09 59.89,78.51 56.34,77.52" fill="rgb(178,143,80)" stroke="#5a5443" stroke-opacity=".15" stroke-width=".45" stroke-linejoin="round"/><polygon points="97.59,142.23 97.59,120.01 95.63,119.46 79.97,115.08 79.97,137.30" fill="rgb(90,102,111)" stroke="#5a5443" stroke-opacity=".15" stroke-width=".45" stroke-linejoin="round"/><polygon points="110.65,134.01 110.65,111.79 110.65,103.24 110.65,81.02 98.98,88.37 97.59,89.24 97.59,111.46 97.59,120.01 97.59,142.23" fill="rgb(83,93,101)" stroke="#5a5443" stroke-opacity=".15" stroke-width=".45" stroke-linejoin="round"/><polygon points="29.20,109.19 68.87,120.28 86.49,125.21 86.49,116.67 68.87,111.73 31.16,101.19 29.20,100.64" fill="rgb(187,176,153)" stroke="#5a5443" stroke-opacity=".15" stroke-width=".45" stroke-linejoin="round"/><polygon points="97.59,120.01 97.59,111.46 95.63,110.91 95.63,119.46" fill="rgb(90,102,111)" stroke="#5a5443" stroke-opacity=".15" stroke-width=".45" stroke-linejoin="round"/><polygon points="68.87,111.73 86.49,116.67 95.63,110.91 79.97,106.53 78.01,105.98" fill="rgb(196,185,161)" stroke="#5a5443" stroke-opacity=".15" stroke-width=".45" stroke-linejoin="round"/><polygon points="97.59,111.46 97.59,89.24 79.97,84.31 79.97,106.53 95.63,110.91" fill="rgb(90,102,111)" stroke="#5a5443" stroke-opacity=".15" stroke-width=".45" stroke-linejoin="round"/><polygon points="155.93,129.99 157.46,129.03 137.87,123.55 136.35,124.51 138.63,125.15 153.64,129.35" fill="rgb(187,150,85)" stroke="#5a5443" stroke-opacity=".15" stroke-width=".45" stroke-linejoin="round"/><polygon points="70.83,143.05 137.22,161.62 146.36,155.87 144.40,155.32 124.81,149.84 97.59,142.23 79.97,137.30" fill="rgb(196,185,161)" stroke="#5a5443" stroke-opacity=".15" stroke-width=".45" stroke-linejoin="round"/><polygon points="86.49,125.21 95.63,119.46 95.63,110.91 86.49,116.67" fill="rgb(171,162,140)" stroke="#5a5443" stroke-opacity=".15" stroke-width=".45" stroke-linejoin="round"/><polygon points="79.97,34.74 78.01,34.19 78.01,105.98 79.97,106.53 79.97,84.31 79.97,75.76" fill="rgb(90,102,111)" stroke="#5a5443" stroke-opacity=".15" stroke-width=".45" stroke-linejoin="round"/><polygon points="137.22,170.17 146.36,164.41 159.41,156.20 168.55,150.44 168.55,141.90 159.41,147.65 146.36,155.87 137.22,161.62" fill="rgb(171,162,140)" stroke="#5a5443" stroke-opacity=".15" stroke-width=".45" stroke-linejoin="round"/><polygon points="157.46,134.28 157.46,129.03 155.93,129.99" fill="rgb(164,131,73)" stroke="#5a5443" stroke-opacity=".15" stroke-width=".45" stroke-linejoin="round"/><polygon points="124.81,131.77 127.10,132.41 128.63,131.45 138.63,125.15 136.35,124.51" fill="rgb(187,150,85)" stroke="#5a5443" stroke-opacity=".15" stroke-width=".45" stroke-linejoin="round"/><polygon points="70.83,151.60 137.22,170.17 137.22,161.62 70.83,143.05" fill="rgb(187,176,153)" stroke="#5a5443" stroke-opacity=".15" stroke-width=".45" stroke-linejoin="round"/><polygon points="146.36,155.87 159.41,147.65 157.46,147.10 144.40,155.32" fill="rgb(196,185,161)" stroke="#5a5443" stroke-opacity=".15" stroke-width=".45" stroke-linejoin="round"/><polygon points="157.46,147.10 157.46,134.28 144.40,142.50 144.40,155.32" fill="rgb(164,131,73)" stroke="#5a5443" stroke-opacity=".15" stroke-width=".45" stroke-linejoin="round"/><polygon points="127.10,132.41 124.81,131.77 124.81,137.02" fill="rgb(178,143,80)" stroke="#5a5443" stroke-opacity=".15" stroke-width=".45" stroke-linejoin="round"/><polygon points="144.40,155.32 144.40,142.50 124.81,137.02 124.81,149.84" fill="rgb(178,143,80)" stroke="#5a5443" stroke-opacity=".15" stroke-width=".45" stroke-linejoin="round"/><polygon points="181.66,92.34 190.80,86.59 102.16,61.79 93.02,67.55 110.65,72.48 160.11,86.31 179.70,91.79" fill="rgb(196,185,161)" stroke="#5a5443" stroke-opacity=".15" stroke-width=".45" stroke-linejoin="round"/><polygon points="157.46,134.28 155.93,129.99 144.40,137.25 144.40,142.50" fill="rgb(164,131,73)" stroke="#5a5443" stroke-opacity=".15" stroke-width=".45" stroke-linejoin="round"/><polygon points="153.64,129.35 141.14,113.18 143.64,135.65" fill="rgb(165,132,74)" stroke="#5a5443" stroke-opacity=".15" stroke-width=".45" stroke-linejoin="round"/><polygon points="110.65,72.48 110.65,31.45 97.59,39.67 97.59,80.69" fill="rgb(83,93,101)" stroke="#5a5443" stroke-opacity=".15" stroke-width=".45" stroke-linejoin="round"/><polygon points="143.64,135.65 141.14,113.18 128.63,131.45" fill="rgb(186,149,84)" stroke="#5a5443" stroke-opacity=".15" stroke-width=".45" stroke-linejoin="round"/><polygon points="142.11,136.61 144.40,137.25 155.93,129.99 153.64,129.35 143.64,135.65" fill="rgb(187,150,85)" stroke="#5a5443" stroke-opacity=".15" stroke-width=".45" stroke-linejoin="round"/><polygon points="144.40,142.50 142.11,136.61 127.10,132.41 124.81,137.02" fill="rgb(178,143,80)" stroke="#5a5443" stroke-opacity=".15" stroke-width=".45" stroke-linejoin="round"/><polygon points="127.10,132.41 142.11,136.61 143.64,135.65 128.63,131.45" fill="rgb(187,150,85)" stroke="#5a5443" stroke-opacity=".15" stroke-width=".45" stroke-linejoin="round"/><polygon points="78.01,34.19 79.97,34.74 97.59,39.67 110.65,31.45 93.02,26.52 91.06,25.98" fill="rgb(95,107,117)" stroke="#5a5443" stroke-opacity=".15" stroke-width=".45" stroke-linejoin="round"/><polygon points="97.59,80.69 97.59,39.67 79.97,34.74 79.97,75.76" fill="rgb(90,102,111)" stroke="#5a5443" stroke-opacity=".15" stroke-width=".45" stroke-linejoin="round"/><polygon points="160.11,86.31 110.65,72.48 97.59,80.69 147.06,94.53" fill="rgb(196,185,161)" stroke="#5a5443" stroke-opacity=".15" stroke-width=".45" stroke-linejoin="round"/><polygon points="144.40,142.50 144.40,137.25 142.11,136.61" fill="rgb(178,143,80)" stroke="#5a5443" stroke-opacity=".15" stroke-width=".45" stroke-linejoin="round"/><polygon points="70.83,81.52 159.46,106.31 168.60,100.56 166.64,100.01 147.06,94.53 97.59,80.69 79.97,75.76" fill="rgb(196,185,161)" stroke="#5a5443" stroke-opacity=".15" stroke-width=".45" stroke-linejoin="round"/><polygon points="70.83,90.06 159.46,114.86 159.46,106.31 70.83,81.52" fill="rgb(187,176,153)" stroke="#5a5443" stroke-opacity=".15" stroke-width=".45" stroke-linejoin="round"/><polygon points="178.71,74.56 179.70,73.94 160.11,68.47 159.13,69.09 160.61,69.50 177.24,74.15" fill="rgb(187,150,85)" stroke="#5a5443" stroke-opacity=".15" stroke-width=".45" stroke-linejoin="round"/><polygon points="147.06,76.68 148.53,77.10 149.52,76.48 160.61,69.50 159.13,69.09" fill="rgb(187,150,85)" stroke="#5a5443" stroke-opacity=".15" stroke-width=".45" stroke-linejoin="round"/><polygon points="179.70,78.97 179.70,73.94 178.71,74.56" fill="rgb(164,131,73)" stroke="#5a5443" stroke-opacity=".15" stroke-width=".45" stroke-linejoin="round"/><polygon points="159.46,114.86 168.60,109.10 169.99,108.23 181.66,100.89 190.80,95.13 190.80,86.59 181.66,92.34 168.60,100.56 159.46,106.31" fill="rgb(171,162,140)" stroke="#5a5443" stroke-opacity=".15" stroke-width=".45" stroke-linejoin="round"/><polygon points="168.60,100.56 181.66,92.34 179.70,91.79 166.64,100.01" fill="rgb(196,185,161)" stroke="#5a5443" stroke-opacity=".15" stroke-width=".45" stroke-linejoin="round"/><polygon points="179.70,91.79 179.70,78.97 166.64,87.19 166.64,100.01" fill="rgb(164,131,73)" stroke="#5a5443" stroke-opacity=".15" stroke-width=".45" stroke-linejoin="round"/><polygon points="148.53,77.10 147.06,76.68 147.06,81.71" fill="rgb(178,143,80)" stroke="#5a5443" stroke-opacity=".15" stroke-width=".45" stroke-linejoin="round"/><polygon points="166.64,100.01 166.64,87.19 147.06,81.71 147.06,94.53" fill="rgb(178,143,80)" stroke="#5a5443" stroke-opacity=".15" stroke-width=".45" stroke-linejoin="round"/><polygon points="179.70,78.97 178.71,74.56 166.64,82.16 166.64,87.19" fill="rgb(164,131,73)" stroke="#5a5443" stroke-opacity=".15" stroke-width=".45" stroke-linejoin="round"/><polygon points="165.17,81.75 166.64,82.16 178.71,74.56 177.24,74.15 166.15,81.13" fill="rgb(187,150,85)" stroke="#5a5443" stroke-opacity=".15" stroke-width=".45" stroke-linejoin="round"/><polygon points="177.24,74.15 163.38,46.98 166.15,81.13" fill="rgb(164,131,73)" stroke="#5a5443" stroke-opacity=".15" stroke-width=".45" stroke-linejoin="round"/><polygon points="166.64,87.19 165.17,81.75 148.53,77.10 147.06,81.71" fill="rgb(178,143,80)" stroke="#5a5443" stroke-opacity=".15" stroke-width=".45" stroke-linejoin="round"/><polygon points="148.53,77.10 165.17,81.75 166.15,81.13 149.52,76.48" fill="rgb(187,150,85)" stroke="#5a5443" stroke-opacity=".15" stroke-width=".45" stroke-linejoin="round"/><polygon points="166.15,81.13 163.38,46.98 149.52,76.48" fill="rgb(184,148,83)" stroke="#5a5443" stroke-opacity=".15" stroke-width=".45" stroke-linejoin="round"/><polygon points="166.64,87.19 166.64,82.16 165.17,81.75" fill="rgb(178,143,80)" stroke="#5a5443" stroke-opacity=".15" stroke-width=".45" stroke-linejoin="round"/></svg>