<svg xmlns="http://www.w3.org/2000/svg" viewBox="0 0 220 210"><rect width="220" height="210" fill="#f3efe6"/><polygon points="77.09,91.18 77.09,79.12 73.16,81.59 73.16,87.22 73.16,93.65" fill="rgb(83,93,101)" stroke="#5a5443" stroke-opacity=".15" stroke-width=".45" stroke-linejoin="round"/><polygon points="143.77,81.70 144.26,81.39 118.04,74.06 117.55,74.37 122.85,75.85 138.17,80.14 143.48,81.62" fill="rgb(196,185,161)" stroke="#5a5443" stroke-opacity=".15" stroke-width=".45" stroke-linejoin="round"/><polygon points="138.17,80.14 122.85,75.85 112.05,82.65 127.37,86.94" fill="rgb(196,185,161)" stroke="#5a5443" stroke-opacity=".15" stroke-width=".45" stroke-linejoin="round"/><polygon points="122.85,75.85 122.85,51.80 112.05,58.60 112.05,82.65" fill="rgb(164,131,73)" stroke="#5a5443" stroke-opacity=".15" stroke-width=".45" stroke-linejoin="round"/><polygon points="41.73,119.05 77.09,96.80 77.09,91.18 73.16,93.65 49.59,108.48 41.73,113.43" fill="rgb(83,93,101)" stroke="#5a5443" stroke-opacity=".15" stroke-width=".45" stroke-linejoin="round"/><polygon points="73.16,81.59 49.59,96.43 49.59,102.05 73.16,87.22" fill="rgb(83,93,101)" stroke="#5a5443" stroke-opacity=".15" stroke-width=".45" stroke-linejoin="round"/><polygon points="27.00,97.25 41.73,101.37 49.59,96.43 73.16,81.59 77.09,79.12 62.36,75.00" fill="rgb(95,107,117)" stroke="#5a5443" stroke-opacity=".15" stroke-width=".45" stroke-linejoin="round"/><polygon points="106.74,57.12 112.05,58.60 122.85,51.80 117.55,50.32" fill="rgb(187,150,85)" stroke="#5a5443" stroke-opacity=".15" stroke-width=".45" stroke-linejoin="round"/><polygon points="112.05,82.65 112.05,58.60 106.74,57.12 106.74,81.17 109.40,81.91" fill="rgb(178,143,80)" stroke="#5a5443" stroke-opacity=".15" stroke-width=".45" stroke-linejoin="round"/><polygon points="132.97,88.50 143.77,81.70 143.48,81.62 132.67,88.42" fill="rgb(196,185,161)" stroke="#5a5443" stroke-opacity=".15" stroke-width=".45" stroke-linejoin="round"/><polygon points="144.26,97.46 144.26,81.39 143.77,81.70 132.97,88.50 127.57,91.90 126.58,92.52 126.58,102.16 126.58,108.59" fill="rgb(171,162,140)" stroke="#5a5443" stroke-opacity=".15" stroke-width=".45" stroke-linejoin="round"/><polygon points="49.59,102.05 76.49,109.58 100.07,94.74 73.16,87.22" fill="rgb(187,150,85)" stroke="#5a5443" stroke-opacity=".15" stroke-width=".45" stroke-linejoin="round"/><polygon points="127.57,91.90 132.97,88.50 132.67,88.42 127.37,86.94 112.05,82.65 109.40,81.91 103.99,85.31 109.89,86.96 118.73,89.43" fill="rgb(196,185,161)" stroke="#5a5443" stroke-opacity=".15" stroke-width=".45" stroke-linejoin="round"/><polygon points="143.48,81.62 143.48,60.86 132.67,67.66 132.67,88.42" fill="rgb(164,131,73)" stroke="#5a5443" stroke-opacity=".15" stroke-width=".45" stroke-linejoin="round"/><polygon points="68.64,104.88 68.93,104.97 106.74,81.17 117.55,74.37 118.04,74.06 117.74,73.97 100.07,85.10 76.49,99.94" fill="rgb(196,185,161)" stroke="#5a5443" stroke-opacity=".15" stroke-width=".45" stroke-linejoin="round"/><polygon points="127.37,66.17 132.67,67.66 143.48,60.86 138.17,59.37" fill="rgb(187,150,85)" stroke="#5a5443" stroke-opacity=".15" stroke-width=".45" stroke-linejoin="round"/><polygon points="132.67,88.42 132.67,67.66 127.37,66.17 127.37,86.94" fill="rgb(178,143,80)" stroke="#5a5443" stroke-opacity=".15" stroke-width=".45" stroke-linejoin="round"/><polygon points="109.89,86.96 103.99,85.31 91.23,93.34 97.12,94.99 103.99,90.66" fill="rgb(196,185,161)" stroke="#5a5443" stroke-opacity=".15" stroke-width=".45" stroke-linejoin="round"/><polygon points="49.59,96.43 41.73,101.37 41.73,113.43 49.59,108.48 49.59,102.05" fill="rgb(83,93,101)" stroke="#5a5443" stroke-opacity=".15" stroke-width=".45" stroke-linejoin="round"/><polygon points="112.83,93.14 118.73,89.43 111.36,69.15" fill="rgb(171,162,140)" stroke="#5a5443" stroke-opacity=".15" stroke-width=".45" stroke-linejoin="round"/><polygon points="103.99,90.66 112.83,93.14 111.36,69.15" fill="rgb(191,181,157)" stroke="#5a5443" stroke-opacity=".15" stroke-width=".45" stroke-linejoin="round"/><polygon points="27.00,114.93 41.73,119.05 41.73,113.43 41.73,101.37 27.00,97.25" fill="rgb(90,102,111)" stroke="#5a5443" stroke-opacity=".15" stroke-width=".45" stroke-linejoin="round"/><polygon points="84.55,143.08 88.48,140.61 88.48,121.33 84.55,123.80" fill="rgb(83,93,101)" stroke="#5a5443" stroke-opacity=".15" stroke-width=".45" stroke-linejoin="round"/><polygon points="49.59,108.48 76.49,116.01 76.49,109.58 49.59,102.05" fill="rgb(178,143,80)" stroke="#5a5443" stroke-opacity=".15" stroke-width=".45" stroke-linejoin="round"/><polygon points="68.93,104.97 71.58,105.71 77.48,102.00 91.23,93.34 103.99,85.31 109.40,81.91 106.74,81.17" fill="rgb(196,185,161)" stroke="#5a5443" stroke-opacity=".15" stroke-width=".45" stroke-linejoin="round"/><polygon points="79.24,141.60 84.55,143.08 84.55,123.80 79.24,122.31" fill="rgb(90,102,111)" stroke="#5a5443" stroke-opacity=".15" stroke-width=".45" stroke-linejoin="round"/><polygon points="103.99,90.66 97.12,94.99 105.96,97.46 112.83,93.14" fill="rgb(196,185,161)" stroke="#5a5443" stroke-opacity=".15" stroke-width=".45" stroke-linejoin="round"/><polygon points="114.80,99.94 126.58,92.52 127.57,91.90 118.73,89.43 112.83,93.14 105.96,97.46 111.85,99.11" fill="rgb(196,185,161)" stroke="#5a5443" stroke-opacity=".15" stroke-width=".45" stroke-linejoin="round"/><polygon points="95.16,134.80 103.99,129.24 107.92,126.77 144.26,103.89 144.26,97.46 126.58,108.59 103.01,123.43 95.16,128.37" fill="rgb(171,162,140)" stroke="#5a5443" stroke-opacity=".15" stroke-width=".45" stroke-linejoin="round"/><polygon points="102.23,148.03 106.16,145.56 106.16,126.27 102.23,128.74" fill="rgb(83,93,101)" stroke="#5a5443" stroke-opacity=".15" stroke-width=".45" stroke-linejoin="round"/><polygon points="96.92,146.55 102.23,148.03 102.23,128.74 96.92,127.26" fill="rgb(90,102,111)" stroke="#5a5443" stroke-opacity=".15" stroke-width=".45" stroke-linejoin="round"/><polygon points="126.58,92.52 114.80,99.94 103.01,107.36 103.01,117.00 126.58,102.16" fill="rgb(171,162,140)" stroke="#5a5443" stroke-opacity=".15" stroke-width=".45" stroke-linejoin="round"/><polygon points="103.01,117.00 137.02,126.51 160.59,111.67 126.58,102.16" fill="rgb(187,150,85)" stroke="#5a5443" stroke-opacity=".15" stroke-width=".45" stroke-linejoin="round"/><polygon points="77.48,87.53 98.10,93.30 111.85,84.65 91.23,78.88" fill="rgb(187,150,85)" stroke="#5a5443" stroke-opacity=".15" stroke-width=".45" stroke-linejoin="round"/><polygon points="101.05,108.59 103.01,107.36 114.80,99.94 111.85,99.11 98.10,107.77" fill="rgb(196,185,161)" stroke="#5a5443" stroke-opacity=".15" stroke-width=".45" stroke-linejoin="round"/><polygon points="111.85,99.11 111.85,84.65 98.10,93.30 98.10,107.77" fill="rgb(164,131,73)" stroke="#5a5443" stroke-opacity=".15" stroke-width=".45" stroke-linejoin="round"/><polygon points="68.64,127.38 70.40,127.88 95.16,134.80 95.16,128.37 95.16,112.30 71.58,105.71 68.93,104.97 68.64,104.88 68.64,120.95" fill="rgb(187,176,153)" stroke="#5a5443" stroke-opacity=".15" stroke-width=".45" stroke-linejoin="round"/><polygon points="98.10,107.77 98.10,93.30 77.48,87.53 77.48,102.00" fill="rgb(178,143,80)" stroke="#5a5443" stroke-opacity=".15" stroke-width=".45" stroke-linejoin="round"/><polygon points="71.58,105.71 95.16,112.30 101.05,108.59 98.10,107.77 77.48,102.00" fill="rgb(196,185,161)" stroke="#5a5443" stroke-opacity=".15" stroke-width=".45" stroke-linejoin="round"/><polygon points="103.01,107.36 101.05,108.59 95.16,112.30 95.16,128.37 103.01,123.43 103.01,117.00" fill="rgb(171,162,140)" stroke="#5a5443" stroke-opacity=".15" stroke-width=".45" stroke-linejoin="round"/><polygon points="103.01,123.43 137.02,132.94 137.02,126.51 103.01,117.00" fill="rgb(178,143,80)" stroke="#5a5443" stroke-opacity=".15" stroke-width=".45" stroke-linejoin="round"/><polygon points="129.16,125.83 143.89,129.95 179.25,107.70 164.52,103.58 160.59,106.05 137.02,120.89" fill="rgb(95,107,117)" stroke="#5a5443" stroke-opacity=".15" stroke-width=".45" stroke-linejoin="round"/><polygon points="143.89,147.63 179.25,125.38 179.25,107.70 143.89,129.95" fill="rgb(83,93,101)" stroke="#5a5443" stroke-opacity=".15" stroke-width=".45" stroke-linejoin="round"/><polygon points="129.16,143.51 143.89,147.63 143.89,129.95 129.16,125.83 129.16,137.88" fill="rgb(90,102,111)" stroke="#5a5443" stroke-opacity=".15" stroke-width=".45" stroke-linejoin="round"/></svg>