<svg xmlns="http://www.w3.org/2000/svg" viewBox="0 0 220 210"><rect width="220" height="210" fill="#f3efe6"/><polygon points="77.77,89.73 77.77,77.51 73.79,80.02 73.79,85.72 73.79,92.24" fill="rgb(83,93,101)" stroke="#5a5443" stroke-opacity=".15" stroke-width=".45" stroke-linejoin="round"/><polygon points="149.76,81.36 150.26,81.05 123.68,73.62 123.19,73.93 128.56,75.43 144.09,79.78 149.46,81.28" fill="rgb(196,185,161)" stroke="#5a5443" stroke-opacity=".15" stroke-width=".45" stroke-linejoin="round"/><polygon points="41.93,117.99 77.77,95.43 77.77,89.73 73.79,92.24 49.89,107.27 41.93,112.28" fill="rgb(83,93,101)" stroke="#5a5443" stroke-opacity=".15" stroke-width=".45" stroke-linejoin="round"/><polygon points="144.09,79.78 128.56,75.43 117.61,82.32 133.14,86.67" fill="rgb(196,185,161)" stroke="#5a5443" stroke-opacity=".15" stroke-width=".45" stroke-linejoin="round"/><polygon points="128.56,75.43 128.56,55.02 117.61,61.91 117.61,82.32" fill="rgb(164,131,73)" stroke="#5a5443" stroke-opacity=".15" stroke-width=".45" stroke-linejoin="round"/><polygon points="73.79,80.02 49.89,95.06 49.89,100.76 73.79,85.72" fill="rgb(83,93,101)" stroke="#5a5443" stroke-opacity=".15" stroke-width=".45" stroke-linejoin="round"/><polygon points="27.00,95.89 41.93,100.07 49.89,95.06 73.79,80.02 77.77,77.51 62.84,73.34" fill="rgb(95,107,117)" stroke="#5a5443" stroke-opacity=".15" stroke-width=".45" stroke-linejoin="round"/><polygon points="112.24,60.40 117.61,61.91 128.56,55.02 123.19,53.51" fill="rgb(187,150,85)" stroke="#5a5443" stroke-opacity=".15" stroke-width=".45" stroke-linejoin="round"/><polygon points="117.61,82.32 117.61,61.91 112.24,60.40 112.24,80.82 114.92,81.57" fill="rgb(178,143,80)" stroke="#5a5443" stroke-opacity=".15" stroke-width=".45" stroke-linejoin="round"/><polygon points="138.81,88.25 149.76,81.36 149.46,81.28 138.52,88.17" fill="rgb(196,185,161)" stroke="#5a5443" stroke-opacity=".15" stroke-width=".45" stroke-linejoin="round"/><polygon points="49.89,100.76 81.58,109.62 105.47,94.58 73.79,85.72" fill="rgb(187,150,85)" stroke="#5a5443" stroke-opacity=".15" stroke-width=".45" stroke-linejoin="round"/><polygon points="150.26,97.34 150.26,81.05 149.76,81.36 138.81,88.25 133.34,91.70 132.34,92.33 132.34,102.10 132.34,108.62" fill="rgb(171,162,140)" stroke="#5a5443" stroke-opacity=".15" stroke-width=".45" stroke-linejoin="round"/><polygon points="133.34,91.70 138.81,88.25 138.52,88.17 133.14,86.67 117.61,82.32 114.92,81.57 109.45,85.02 115.42,86.69 124.38,89.19" fill="rgb(196,185,161)" stroke="#5a5443" stroke-opacity=".15" stroke-width=".45" stroke-linejoin="round"/><polygon points="149.46,81.28 149.46,61.08 138.52,67.97 138.52,88.17" fill="rgb(164,131,73)" stroke="#5a5443" stroke-opacity=".15" stroke-width=".45" stroke-linejoin="round"/><polygon points="73.61,104.86 73.91,104.94 112.24,80.82 123.19,73.93 123.68,73.62 123.38,73.53 105.47,84.81 81.58,99.85" fill="rgb(196,185,161)" stroke="#5a5443" stroke-opacity=".15" stroke-width=".45" stroke-linejoin="round"/><polygon points="133.14,66.47 138.52,67.97 149.46,61.08 144.09,59.58" fill="rgb(187,150,85)" stroke="#5a5443" stroke-opacity=".15" stroke-width=".45" stroke-linejoin="round"/><polygon points="138.52,88.17 138.52,67.97 133.14,66.47 133.14,86.67" fill="rgb(178,143,80)" stroke="#5a5443" stroke-opacity=".15" stroke-width=".45" stroke-linejoin="round"/><polygon points="115.42,86.69 109.45,85.02 96.51,93.16 102.48,94.83 109.45,90.45" fill="rgb(196,185,161)" stroke="#5a5443" stroke-opacity=".15" stroke-width=".45" stroke-linejoin="round"/><polygon points="49.89,95.06 41.93,100.07 41.93,112.28 49.89,107.27 49.89,100.76" fill="rgb(83,93,101)" stroke="#5a5443" stroke-opacity=".15" stroke-width=".45" stroke-linejoin="round"/><polygon points="27.00,113.81 41.93,117.99 41.93,112.28 41.93,100.07 27.00,95.89" fill="rgb(90,102,111)" stroke="#5a5443" stroke-opacity=".15" stroke-width=".45" stroke-linejoin="round"/><polygon points="118.41,92.95 124.38,89.19 116.91,68.65" fill="rgb(171,162,140)" stroke="#5a5443" stroke-opacity=".15" stroke-width=".45" stroke-linejoin="round"/><polygon points="109.45,90.45 118.41,92.95 116.91,68.65" fill="rgb(191,181,157)" stroke="#5a5443" stroke-opacity=".15" stroke-width=".45" stroke-linejoin="round"/><polygon points="49.89,107.27 81.58,116.13 81.58,109.62 49.89,100.76" fill="rgb(178,143,80)" stroke="#5a5443" stroke-opacity=".15" stroke-width=".45" stroke-linejoin="round"/><polygon points="89.74,143.58 93.72,141.07 93.72,121.52 89.74,124.03" fill="rgb(83,93,101)" stroke="#5a5443" stroke-opacity=".15" stroke-width=".45" stroke-linejoin="round"/><polygon points="73.91,104.94 76.60,105.69 82.57,101.93 96.51,93.16 109.45,85.02 114.92,81.57 112.24,80.82" fill="rgb(196,185,161)" stroke="#5a5443" stroke-opacity=".15" stroke-width=".45" stroke-linejoin="round"/><polygon points="84.36,142.07 89.74,143.58 89.74,124.03 84.36,122.53" fill="rgb(90,102,111)" stroke="#5a5443" stroke-opacity=".15" stroke-width=".45" stroke-linejoin="round"/><polygon points="109.45,90.45 102.48,94.83 111.44,97.34 118.41,92.95" fill="rgb(196,185,161)" stroke="#5a5443" stroke-opacity=".15" stroke-width=".45" stroke-linejoin="round"/><polygon points="120.40,99.85 132.34,92.33 133.34,91.70 124.38,89.19 118.41,92.95 111.44,97.34 117.41,99.01" fill="rgb(196,185,161)" stroke="#5a5443" stroke-opacity=".15" stroke-width=".45" stroke-linejoin="round"/><polygon points="100.49,135.18 109.45,129.54 113.43,127.04 150.26,103.86 150.26,97.34 132.34,108.62 108.45,123.65 100.49,128.66" fill="rgb(171,162,140)" stroke="#5a5443" stroke-opacity=".15" stroke-width=".45" stroke-linejoin="round"/><polygon points="107.66,148.59 111.64,146.08 111.64,126.53 107.66,129.04" fill="rgb(83,93,101)" stroke="#5a5443" stroke-opacity=".15" stroke-width=".45" stroke-linejoin="round"/><polygon points="102.28,147.08 107.66,148.59 107.66,129.04 102.28,127.54" fill="rgb(90,102,111)" stroke="#5a5443" stroke-opacity=".15" stroke-width=".45" stroke-linejoin="round"/><polygon points="132.34,92.33 120.40,99.85 108.45,107.36 108.45,117.14 132.34,102.10" fill="rgb(171,162,140)" stroke="#5a5443" stroke-opacity=".15" stroke-width=".45" stroke-linejoin="round"/><polygon points="108.45,117.14 136.26,124.92 160.15,109.88 132.34,102.10" fill="rgb(187,150,85)" stroke="#5a5443" stroke-opacity=".15" stroke-width=".45" stroke-linejoin="round"/><polygon points="82.57,87.27 103.48,93.12 117.41,84.35 96.51,78.50" fill="rgb(187,150,85)" stroke="#5a5443" stroke-opacity=".15" stroke-width=".45" stroke-linejoin="round"/><polygon points="106.46,108.62 108.45,107.36 120.40,99.85 117.41,99.01 103.48,107.78" fill="rgb(196,185,161)" stroke="#5a5443" stroke-opacity=".15" stroke-width=".45" stroke-linejoin="round"/><polygon points="117.41,99.01 117.41,84.35 103.48,93.12 103.48,107.78" fill="rgb(164,131,73)" stroke="#5a5443" stroke-opacity=".15" stroke-width=".45" stroke-linejoin="round"/><polygon points="73.61,127.66 75.40,128.16 100.49,135.18 100.49,128.66 100.49,112.38 76.60,105.69 73.91,104.94 73.61,104.86 73.61,121.15" fill="rgb(187,176,153)" stroke="#5a5443" stroke-opacity=".15" stroke-width=".45" stroke-linejoin="round"/><polygon points="103.48,107.78 103.48,93.12 82.57,87.27 82.57,101.93" fill="rgb(178,143,80)" stroke="#5a5443" stroke-opacity=".15" stroke-width=".45" stroke-linejoin="round"/><polygon points="76.60,105.69 100.49,112.38 106.46,108.62 103.48,107.78 82.57,101.93" fill="rgb(196,185,161)" stroke="#5a5443" stroke-opacity=".15" stroke-width=".45" stroke-linejoin="round"/><polygon points="108.45,107.36 106.46,108.62 100.49,112.38 100.49,128.66 108.45,123.65 108.45,117.14" fill="rgb(171,162,140)" stroke="#5a5443" stroke-opacity=".15" stroke-width=".45" stroke-linejoin="round"/><polygon points="108.45,123.65 136.26,131.43 136.26,124.92 108.45,117.14" fill="rgb(178,143,80)" stroke="#5a5443" stroke-opacity=".15" stroke-width=".45" stroke-linejoin="round"/><polygon points="128.30,124.23 143.23,128.40 179.06,105.85 164.13,101.67 160.15,104.18 136.26,119.21" fill="rgb(95,107,117)" stroke="#5a5443" stroke-opacity=".15" stroke-width=".45" stroke-linejoin="round"/><polygon points="143.23,146.32 179.06,123.77 179.06,105.85 143.23,128.40" fill="rgb(83,93,101)" stroke="#5a5443" stroke-opacity=".15" stroke-width=".45" stroke-linejoin="round"/><polygon points="128.30,142.14 143.23,146.32 143.23,128.40 128.30,124.23 128.30,136.44" fill="rgb(90,102,111)" stroke="#5a5443" stroke-opacity=".15" stroke-width=".45" stroke-linejoin="round"/></svg>