<svg xmlns="http://www.w3.org/2000/svg" viewBox="0 0 220 210"><rect width="220" height="210" fill="#f3efe6"/><polygon points="71.75,119.48 75.75,116.96 75.75,96.99 71.75,99.51 71.75,112.94" fill="rgb(119,105,135)" stroke="#5a5443" stroke-opacity=".15" stroke-width=".45" stroke-linejoin="round"/><polygon points="130.93,163.64 138.35,158.97 111.79,151.54 104.37,156.21 106.94,156.93 119.79,160.52" fill="rgb(196,185,161)" stroke="#5a5443" stroke-opacity=".15" stroke-width=".45" stroke-linejoin="round"/><polygon points="29.70,97.61 60.90,106.34 64.90,103.82 71.75,99.51 75.75,96.99 44.56,88.26" fill="rgb(136,121,155)" stroke="#5a5443" stroke-opacity=".15" stroke-width=".45" stroke-linejoin="round"/><polygon points="75.52,164.24 86.66,167.35 94.09,162.68 104.37,156.21 111.79,151.54 100.66,148.42" fill="rgb(196,185,161)" stroke="#5a5443" stroke-opacity=".15" stroke-width=".45" stroke-linejoin="round"/><polygon points="29.70,117.59 45.30,121.95 60.90,126.31 60.90,106.34 29.70,97.61" fill="rgb(130,115,147)" stroke="#5a5443" stroke-opacity=".15" stroke-width=".45" stroke-linejoin="round"/><polygon points="71.75,112.94 71.75,99.51 64.90,103.82 64.90,117.25" fill="rgb(119,105,135)" stroke="#5a5443" stroke-opacity=".15" stroke-width=".45" stroke-linejoin="round"/><polygon points="49.30,122.24 95.80,135.24 95.80,132.44 64.90,123.79 49.30,119.43" fill="rgb(90,102,111)" stroke="#5a5443" stroke-opacity=".15" stroke-width=".45" stroke-linejoin="round"/><polygon points="116.91,82.98 123.91,84.93 123.91,78.39 123.91,56.83 116.91,54.88" fill="rgb(130,115,147)" stroke="#5a5443" stroke-opacity=".15" stroke-width=".45" stroke-linejoin="round"/><polygon points="60.90,126.31 64.90,123.79 64.90,117.25 64.90,103.82 60.90,106.34" fill="rgb(119,105,135)" stroke="#5a5443" stroke-opacity=".15" stroke-width=".45" stroke-linejoin="round"/><polygon points="141.18,89.77 148.61,85.09 156.03,80.42 156.03,52.32 141.18,61.67 141.18,83.22" fill="rgb(119,105,135)" stroke="#5a5443" stroke-opacity=".15" stroke-width=".45" stroke-linejoin="round"/><polygon points="64.90,117.25 95.80,125.90 102.66,121.58 71.75,112.94" fill="rgb(95,107,117)" stroke="#5a5443" stroke-opacity=".15" stroke-width=".45" stroke-linejoin="round"/><polygon points="116.91,54.88 123.91,56.83 141.18,61.67 156.03,52.32 131.76,45.53" fill="rgb(136,121,155)" stroke="#5a5443" stroke-opacity=".15" stroke-width=".45" stroke-linejoin="round"/><polygon points="134.19,87.81 141.18,89.77 141.18,83.22 134.19,81.27" fill="rgb(130,115,147)" stroke="#5a5443" stroke-opacity=".15" stroke-width=".45" stroke-linejoin="round"/><polygon points="95.80,132.44 95.80,125.90 64.90,117.25 64.90,123.79" fill="rgb(90,102,111)" stroke="#5a5443" stroke-opacity=".15" stroke-width=".45" stroke-linejoin="round"/><polygon points="117.22,101.29 141.61,85.94 141.61,83.14 134.19,87.81 117.22,98.49" fill="rgb(83,93,101)" stroke="#5a5443" stroke-opacity=".15" stroke-width=".45" stroke-linejoin="round"/><polygon points="141.18,83.22 141.18,61.67 123.91,56.83 123.91,78.39 134.19,81.27" fill="rgb(130,115,147)" stroke="#5a5443" stroke-opacity=".15" stroke-width=".45" stroke-linejoin="round"/><polygon points="120.65,170.11 130.93,163.64 119.79,160.52 109.51,166.99" fill="rgb(196,185,161)" stroke="#5a5443" stroke-opacity=".15" stroke-width=".45" stroke-linejoin="round"/><polygon points="113.22,186.00 138.35,170.18 138.35,158.97 130.93,163.64 120.65,170.11 113.22,174.78" fill="rgb(171,162,140)" stroke="#5a5443" stroke-opacity=".15" stroke-width=".45" stroke-linejoin="round"/><polygon points="109.51,166.99 109.51,156.71 106.94,155.99 96.66,153.12 96.66,163.40" fill="rgb(90,102,111)" stroke="#5a5443" stroke-opacity=".15" stroke-width=".45" stroke-linejoin="round"/><polygon points="117.22,91.95 134.19,81.27 123.91,78.39 106.94,89.07" fill="rgb(95,107,117)" stroke="#5a5443" stroke-opacity=".15" stroke-width=".45" stroke-linejoin="round"/><polygon points="86.66,167.35 113.22,174.78 120.65,170.11 109.51,166.99 96.66,163.40 94.09,162.68" fill="rgb(196,185,161)" stroke="#5a5443" stroke-opacity=".15" stroke-width=".45" stroke-linejoin="round"/><polygon points="75.52,175.45 113.22,186.00 113.22,174.78 86.66,167.35 75.52,164.24" fill="rgb(187,176,153)" stroke="#5a5443" stroke-opacity=".15" stroke-width=".45" stroke-linejoin="round"/><polygon points="134.19,81.27 117.22,91.95 117.22,98.49 134.19,87.81" fill="rgb(83,93,101)" stroke="#5a5443" stroke-opacity=".15" stroke-width=".45" stroke-linejoin="round"/><polygon points="109.51,156.71 109.51,147.37 106.94,146.65 106.94,153.19 106.94,155.99" fill="rgb(90,102,111)" stroke="#5a5443" stroke-opacity=".15" stroke-width=".45" stroke-linejoin="round"/><polygon points="119.79,160.52 119.79,118.09 118.08,119.17 111.22,123.48 109.51,124.56 109.51,147.37 109.51,156.71 109.51,166.99" fill="rgb(83,93,101)" stroke="#5a5443" stroke-opacity=".15" stroke-width=".45" stroke-linejoin="round"/><polygon points="96.66,40.02 94.09,39.30 94.09,136.32 94.09,162.68 96.66,163.40 96.66,153.12 96.66,150.31 96.66,143.77" fill="rgb(90,102,111)" stroke="#5a5443" stroke-opacity=".15" stroke-width=".45" stroke-linejoin="round"/><polygon points="97.40,152.65 106.94,146.65 96.66,143.77 87.12,149.77" fill="rgb(95,107,117)" stroke="#5a5443" stroke-opacity=".15" stroke-width=".45" stroke-linejoin="round"/><polygon points="106.94,153.19 106.94,146.65 97.40,152.65 97.40,159.19" fill="rgb(83,93,101)" stroke="#5a5443" stroke-opacity=".15" stroke-width=".45" stroke-linejoin="round"/><polygon points="89.98,166.67 106.94,155.99 106.94,153.19 97.40,159.19 89.98,163.87" fill="rgb(83,93,101)" stroke="#5a5443" stroke-opacity=".15" stroke-width=".45" stroke-linejoin="round"/><polygon points="91.25,60.63 95.25,58.11 95.25,32.99 91.25,35.51 91.25,54.09" fill="rgb(119,105,135)" stroke="#5a5443" stroke-opacity=".15" stroke-width=".45" stroke-linejoin="round"/><polygon points="119.79,118.09 119.79,102.01 119.79,92.67 119.79,37.14 118.08,38.22 118.08,77.67 118.08,87.01 118.08,109.82 118.08,119.17" fill="rgb(83,93,101)" stroke="#5a5443" stroke-opacity=".15" stroke-width=".45" stroke-linejoin="round"/><polygon points="111.22,91.33 111.22,114.13 118.08,109.82 118.08,87.01" fill="rgb(83,93,101)" stroke="#5a5443" stroke-opacity=".15" stroke-width=".45" stroke-linejoin="round"/><polygon points="70.83,63.95 95.80,70.94 95.80,68.13 84.40,64.94 70.83,61.15" fill="rgb(90,102,111)" stroke="#5a5443" stroke-opacity=".15" stroke-width=".45" stroke-linejoin="round"/><polygon points="79.70,163.79 89.98,166.67 89.98,163.87 79.70,160.99" fill="rgb(90,102,111)" stroke="#5a5443" stroke-opacity=".15" stroke-width=".45" stroke-linejoin="round"/><polygon points="109.51,147.37 109.51,124.56 109.51,43.62 96.66,40.02 96.66,143.77 106.94,146.65" fill="rgb(90,102,111)" stroke="#5a5443" stroke-opacity=".15" stroke-width=".45" stroke-linejoin="round"/><polygon points="111.22,114.13 140.05,122.20 146.91,117.88 118.08,109.82" fill="rgb(95,107,117)" stroke="#5a5443" stroke-opacity=".15" stroke-width=".45" stroke-linejoin="round"/><polygon points="53.26,34.74 80.40,42.34 84.40,39.82 91.25,35.51 95.25,32.99 68.12,25.40" fill="rgb(136,121,155)" stroke="#5a5443" stroke-opacity=".15" stroke-width=".45" stroke-linejoin="round"/><polygon points="84.40,58.40 95.80,61.59 102.66,57.28 91.25,54.09" fill="rgb(95,107,117)" stroke="#5a5443" stroke-opacity=".15" stroke-width=".45" stroke-linejoin="round"/><polygon points="53.26,59.87 66.83,63.66 80.40,67.46 80.40,42.34 53.26,34.74" fill="rgb(130,115,147)" stroke="#5a5443" stroke-opacity=".15" stroke-width=".45" stroke-linejoin="round"/><polygon points="91.25,54.09 91.25,35.51 84.40,39.82 84.40,58.40" fill="rgb(119,105,135)" stroke="#5a5443" stroke-opacity=".15" stroke-width=".45" stroke-linejoin="round"/><polygon points="95.80,68.13 95.80,61.59 84.40,58.40 84.40,64.94" fill="rgb(90,102,111)" stroke="#5a5443" stroke-opacity=".15" stroke-width=".45" stroke-linejoin="round"/><polygon points="111.22,123.48 140.05,131.55 140.05,128.74 140.05,122.20 111.22,114.13" fill="rgb(90,102,111)" stroke="#5a5443" stroke-opacity=".15" stroke-width=".45" stroke-linejoin="round"/><polygon points="80.40,67.46 84.40,64.94 84.40,58.40 84.40,39.82 80.40,42.34" fill="rgb(119,105,135)" stroke="#5a5443" stroke-opacity=".15" stroke-width=".45" stroke-linejoin="round"/><polygon points="62.21,140.68 92.61,149.18 107.46,139.84 87.12,134.15 77.06,131.33" fill="rgb(196,185,161)" stroke="#5a5443" stroke-opacity=".15" stroke-width=".45" stroke-linejoin="round"/><polygon points="111.22,42.54 109.51,43.62 109.51,124.56 111.22,123.48 111.22,114.13 111.22,91.33 111.22,81.98" fill="rgb(83,93,101)" stroke="#5a5443" stroke-opacity=".15" stroke-width=".45" stroke-linejoin="round"/><polygon points="111.22,81.98 120.14,84.48 127.00,80.16 118.08,77.67" fill="rgb(95,107,117)" stroke="#5a5443" stroke-opacity=".15" stroke-width=".45" stroke-linejoin="round"/><polygon points="92.61,171.35 100.03,166.68 107.46,162.01 107.46,155.46 107.46,139.84 92.61,149.18" fill="rgb(171,162,140)" stroke="#5a5443" stroke-opacity=".15" stroke-width=".45" stroke-linejoin="round"/><polygon points="111.22,91.33 120.14,93.82 120.14,91.02 120.14,84.48 111.22,81.98" fill="rgb(90,102,111)" stroke="#5a5443" stroke-opacity=".15" stroke-width=".45" stroke-linejoin="round"/><polygon points="62.21,162.85 72.27,165.66 92.61,171.35 92.61,149.18 62.21,140.68" fill="rgb(187,176,153)" stroke="#5a5443" stroke-opacity=".15" stroke-width=".45" stroke-linejoin="round"/><polygon points="140.05,131.55 156.03,136.02 156.03,133.21 140.05,128.74" fill="rgb(90,102,111)" stroke="#5a5443" stroke-opacity=".15" stroke-width=".45" stroke-linejoin="round"/><polygon points="156.03,136.02 162.89,131.70 162.89,128.90 156.03,133.21" fill="rgb(83,93,101)" stroke="#5a5443" stroke-opacity=".15" stroke-width=".45" stroke-linejoin="round"/><polygon points="118.08,38.22 111.22,42.54 111.22,81.98 118.08,77.67" fill="rgb(83,93,101)" stroke="#5a5443" stroke-opacity=".15" stroke-width=".45" stroke-linejoin="round"/><polygon points="133.08,97.44 139.93,93.13 139.93,90.32 133.08,94.64" fill="rgb(83,93,101)" stroke="#5a5443" stroke-opacity=".15" stroke-width=".45" stroke-linejoin="round"/><polygon points="120.14,93.82 133.08,97.44 133.08,94.64 120.14,91.02" fill="rgb(90,102,111)" stroke="#5a5443" stroke-opacity=".15" stroke-width=".45" stroke-linejoin="round"/><polygon points="94.09,39.30 96.66,40.02 109.51,43.62 111.22,42.54 118.08,38.22 119.79,37.14 106.94,33.55 104.37,32.83 102.66,33.91 95.80,38.22" fill="rgb(95,107,117)" stroke="#5a5443" stroke-opacity=".15" stroke-width=".45" stroke-linejoin="round"/><polygon points="136.05,108.70 168.02,117.64 182.87,108.30 150.90,99.36 146.91,101.87 140.05,106.19" fill="rgb(196,185,161)" stroke="#5a5443" stroke-opacity=".15" stroke-width=".45" stroke-linejoin="round"/><polygon points="168.02,140.20 172.01,137.68 178.87,133.37 182.87,130.85 182.87,108.30 168.02,117.64" fill="rgb(171,162,140)" stroke="#5a5443" stroke-opacity=".15" stroke-width=".45" stroke-linejoin="round"/><polygon points="116.14,61.02 142.01,68.25 156.86,58.91 130.99,51.67 127.00,54.19 120.14,58.50" fill="rgb(196,185,161)" stroke="#5a5443" stroke-opacity=".15" stroke-width=".45" stroke-linejoin="round"/><polygon points="142.01,100.77 146.01,98.26 152.87,93.94 156.86,91.42 156.86,58.91 142.01,68.25" fill="rgb(171,162,140)" stroke="#5a5443" stroke-opacity=".15" stroke-width=".45" stroke-linejoin="round"/><polygon points="136.05,131.26 168.02,140.20 168.02,117.64 136.05,108.70" fill="rgb(187,176,153)" stroke="#5a5443" stroke-opacity=".15" stroke-width=".45" stroke-linejoin="round"/><polygon points="116.14,93.53 142.01,100.77 142.01,68.25 116.14,61.02" fill="rgb(187,176,153)" stroke="#5a5443" stroke-opacity=".15" stroke-width=".45" stroke-linejoin="round"/></svg>