<svg xmlns="http://www.w3.org/2000/svg" viewBox="0 0 220 210"><rect width="220" height="210" fill="#f3efe6"/><polygon points="50.63,134.45 78.28,117.05 78.28,87.92 66.68,95.22 62.23,98.02 50.63,105.32" fill="rgb(164,131,73)" stroke="#5a5443" stroke-opacity=".15" stroke-width=".45" stroke-linejoin="round"/><polygon points="78.28,87.92 78.28,51.50 66.68,58.80 66.68,87.93 66.68,95.22" fill="rgb(164,131,73)" stroke="#5a5443" stroke-opacity=".15" stroke-width=".45" stroke-linejoin="round"/><polygon points="79.07,165.68 93.27,169.65 102.73,163.70 110.52,158.79 119.98,152.84 105.79,148.87" fill="rgb(95,107,117)" stroke="#5a5443" stroke-opacity=".15" stroke-width=".45" stroke-linejoin="round"/><polygon points="136.40,166.03 145.87,160.08 119.98,152.84 110.52,158.79 122.21,162.06" fill="rgb(95,107,117)" stroke="#5a5443" stroke-opacity=".15" stroke-width=".45" stroke-linejoin="round"/><polygon points="66.68,58.80 62.23,61.60 62.23,90.73 66.68,87.93" fill="rgb(164,131,73)" stroke="#5a5443" stroke-opacity=".15" stroke-width=".45" stroke-linejoin="round"/><polygon points="128.61,170.94 136.40,166.03 122.21,162.06 114.42,166.97" fill="rgb(95,107,117)" stroke="#5a5443" stroke-opacity=".15" stroke-width=".45" stroke-linejoin="round"/><polygon points="62.23,90.73 93.54,99.49 98.00,96.69 66.68,87.93" fill="rgb(95,107,117)" stroke="#5a5443" stroke-opacity=".15" stroke-width=".45" stroke-linejoin="round"/><polygon points="33.93,64.23 50.63,68.90 62.23,61.60 66.68,58.80 78.28,51.50 61.58,46.83" fill="rgb(187,150,85)" stroke="#5a5443" stroke-opacity=".15" stroke-width=".45" stroke-linejoin="round"/><polygon points="62.23,98.02 93.54,106.78 93.54,99.49 62.23,90.73" fill="rgb(90,102,111)" stroke="#5a5443" stroke-opacity=".15" stroke-width=".45" stroke-linejoin="round"/><polygon points="122.21,162.06 122.21,131.09 114.42,136.00 114.42,166.97" fill="rgb(83,93,101)" stroke="#5a5443" stroke-opacity=".15" stroke-width=".45" stroke-linejoin="round"/><polygon points="119.15,186.00 145.87,169.18 145.87,160.08 136.40,166.03 128.61,170.94 119.15,176.89" fill="rgb(83,93,101)" stroke="#5a5443" stroke-opacity=".15" stroke-width=".45" stroke-linejoin="round"/><polygon points="33.93,129.78 50.63,134.45 50.63,105.32 50.63,68.90 33.93,64.23" fill="rgb(178,143,80)" stroke="#5a5443" stroke-opacity=".15" stroke-width=".45" stroke-linejoin="round"/><polygon points="62.23,61.60 50.63,68.90 50.63,105.32 62.23,98.02 62.23,90.73" fill="rgb(164,131,73)" stroke="#5a5443" stroke-opacity=".15" stroke-width=".45" stroke-linejoin="round"/><polygon points="114.42,166.97 114.42,136.00 102.73,132.73 102.73,163.70" fill="rgb(90,102,111)" stroke="#5a5443" stroke-opacity=".15" stroke-width=".45" stroke-linejoin="round"/><polygon points="119.43,88.21 128.33,82.61 128.33,66.21 119.43,71.82 119.43,72.73" fill="rgb(83,93,101)" stroke="#5a5443" stroke-opacity=".15" stroke-width=".45" stroke-linejoin="round"/><polygon points="105.51,69.95 117.20,73.22 119.43,71.82 128.33,66.21 116.64,62.94 107.74,68.55" fill="rgb(95,107,117)" stroke="#5a5443" stroke-opacity=".15" stroke-width=".45" stroke-linejoin="round"/><polygon points="93.27,169.65 119.15,176.89 128.61,170.94 114.42,166.97 102.73,163.70" fill="rgb(95,107,117)" stroke="#5a5443" stroke-opacity=".15" stroke-width=".45" stroke-linejoin="round"/><polygon points="79.07,174.79 119.15,186.00 119.15,176.89 93.27,169.65 79.07,165.68" fill="rgb(90,102,111)" stroke="#5a5443" stroke-opacity=".15" stroke-width=".45" stroke-linejoin="round"/><polygon points="117.20,74.13 117.20,73.22 105.51,69.95 105.51,70.86" fill="rgb(90,102,111)" stroke="#5a5443" stroke-opacity=".15" stroke-width=".45" stroke-linejoin="round"/><polygon points="119.43,72.73 119.43,71.82 117.20,73.22 117.20,74.13" fill="rgb(83,93,101)" stroke="#5a5443" stroke-opacity=".15" stroke-width=".45" stroke-linejoin="round"/><polygon points="127.78,75.06 119.43,72.73 117.20,74.13 125.55,76.46" fill="rgb(196,185,161)" stroke="#5a5443" stroke-opacity=".15" stroke-width=".45" stroke-linejoin="round"/><polygon points="139.46,93.82 148.37,88.21 148.37,71.82 139.46,77.42 139.46,78.33" fill="rgb(83,93,101)" stroke="#5a5443" stroke-opacity=".15" stroke-width=".45" stroke-linejoin="round"/><polygon points="125.55,75.55 137.24,78.82 139.46,77.42 148.37,71.82 136.68,68.55 127.78,74.15" fill="rgb(95,107,117)" stroke="#5a5443" stroke-opacity=".15" stroke-width=".45" stroke-linejoin="round"/><polygon points="84.64,83.24 85.47,83.47 87.70,82.07 104.40,71.56 105.51,70.86 107.74,69.46 106.90,69.22 98.00,74.83 93.54,77.63" fill="rgb(196,185,161)" stroke="#5a5443" stroke-opacity=".15" stroke-width=".45" stroke-linejoin="round"/><polygon points="136.96,80.67 138.07,79.97 137.24,79.73 125.55,76.46 117.20,74.13 105.51,70.86 104.40,71.56 108.57,72.73 131.95,79.27" fill="rgb(196,185,161)" stroke="#5a5443" stroke-opacity=".15" stroke-width=".45" stroke-linejoin="round"/><polygon points="118.03,143.59 125.27,139.03 133.06,134.13 140.30,129.57 140.30,107.71 131.39,113.32 126.94,116.12 118.03,121.73" fill="rgb(171,162,140)" stroke="#5a5443" stroke-opacity=".15" stroke-width=".45" stroke-linejoin="round"/><polygon points="84.64,134.25 85.47,134.48 85.47,98.96 85.47,83.47 84.64,83.24 84.64,112.38" fill="rgb(187,176,153)" stroke="#5a5443" stroke-opacity=".15" stroke-width=".45" stroke-linejoin="round"/><polygon points="137.24,79.73 137.24,78.82 125.55,75.55 125.55,76.46" fill="rgb(90,102,111)" stroke="#5a5443" stroke-opacity=".15" stroke-width=".45" stroke-linejoin="round"/><polygon points="108.57,72.73 104.40,71.56 87.70,82.07 91.87,83.24 92.99,82.54" fill="rgb(196,185,161)" stroke="#5a5443" stroke-opacity=".15" stroke-width=".45" stroke-linejoin="round"/><polygon points="140.30,107.71 140.30,94.05 140.30,78.57 138.07,79.97 136.96,80.67 131.39,84.17 131.39,106.03 131.39,113.32" fill="rgb(171,162,140)" stroke="#5a5443" stroke-opacity=".15" stroke-width=".45" stroke-linejoin="round"/><polygon points="139.46,78.33 139.46,77.42 137.24,78.82 137.24,79.73" fill="rgb(83,93,101)" stroke="#5a5443" stroke-opacity=".15" stroke-width=".45" stroke-linejoin="round"/><polygon points="138.07,79.97 140.30,78.57 139.46,78.33 137.24,79.73" fill="rgb(196,185,161)" stroke="#5a5443" stroke-opacity=".15" stroke-width=".45" stroke-linejoin="round"/><polygon points="85.47,134.48 95.49,137.28 118.03,143.59 118.03,121.73 118.03,108.06 117.20,107.83 105.51,104.56 97.16,102.23 85.47,98.96" fill="rgb(187,176,153)" stroke="#5a5443" stroke-opacity=".15" stroke-width=".45" stroke-linejoin="round"/><polygon points="131.39,84.17 126.94,86.97 126.94,108.83 131.39,106.03" fill="rgb(171,162,140)" stroke="#5a5443" stroke-opacity=".15" stroke-width=".45" stroke-linejoin="round"/><polygon points="126.94,108.83 153.32,116.21 157.77,113.41 131.39,106.03" fill="rgb(95,107,117)" stroke="#5a5443" stroke-opacity=".15" stroke-width=".45" stroke-linejoin="round"/><polygon points="126.94,116.12 153.32,123.50 153.32,116.21 126.94,108.83" fill="rgb(90,102,111)" stroke="#5a5443" stroke-opacity=".15" stroke-width=".45" stroke-linejoin="round"/><polygon points="99.39,85.34 99.39,84.43 97.16,85.83 97.16,86.74" fill="rgb(83,93,101)" stroke="#5a5443" stroke-opacity=".15" stroke-width=".45" stroke-linejoin="round"/><polygon points="105.51,89.08 97.16,86.74 97.16,102.23 105.51,104.56" fill="rgb(187,176,153)" stroke="#5a5443" stroke-opacity=".15" stroke-width=".45" stroke-linejoin="round"/><polygon points="92.99,82.54 91.87,83.24 99.39,85.34 107.74,87.68 115.25,89.78 116.37,89.08" fill="rgb(196,185,161)" stroke="#5a5443" stroke-opacity=".15" stroke-width=".45" stroke-linejoin="round"/><polygon points="116.37,89.08 131.95,79.27 112.47,35.39" fill="rgb(164,131,73)" stroke="#5a5443" stroke-opacity=".15" stroke-width=".45" stroke-linejoin="round"/><polygon points="120.26,91.18 126.94,86.97 131.39,84.17 136.96,80.67 131.95,79.27 116.37,89.08 115.25,89.78 119.43,90.94" fill="rgb(196,185,161)" stroke="#5a5443" stroke-opacity=".15" stroke-width=".45" stroke-linejoin="round"/><polygon points="76.57,88.17 88.26,91.44 97.16,85.83 99.39,84.43 87.70,81.16 85.47,82.56" fill="rgb(95,107,117)" stroke="#5a5443" stroke-opacity=".15" stroke-width=".45" stroke-linejoin="round"/><polygon points="126.94,86.97 120.26,91.18 118.03,92.58 118.03,108.06 118.03,121.73 126.94,116.12 126.94,108.83" fill="rgb(171,162,140)" stroke="#5a5443" stroke-opacity=".15" stroke-width=".45" stroke-linejoin="round"/><polygon points="97.16,86.74 105.51,89.08 107.74,87.68 99.39,85.34" fill="rgb(196,185,161)" stroke="#5a5443" stroke-opacity=".15" stroke-width=".45" stroke-linejoin="round"/><polygon points="92.99,82.54 116.37,89.08 112.47,35.39" fill="rgb(184,147,83)" stroke="#5a5443" stroke-opacity=".15" stroke-width=".45" stroke-linejoin="round"/><polygon points="88.26,107.83 97.16,102.23 97.16,86.74 97.16,85.83 88.26,91.44" fill="rgb(83,93,101)" stroke="#5a5443" stroke-opacity=".15" stroke-width=".45" stroke-linejoin="round"/><polygon points="76.57,104.56 88.26,107.83 88.26,91.44 76.57,88.17" fill="rgb(90,102,111)" stroke="#5a5443" stroke-opacity=".15" stroke-width=".45" stroke-linejoin="round"/><polygon points="118.03,108.06 118.03,92.58 117.20,92.35 117.20,107.83" fill="rgb(187,176,153)" stroke="#5a5443" stroke-opacity=".15" stroke-width=".45" stroke-linejoin="round"/><polygon points="119.43,90.94 119.43,90.03 117.20,91.44 117.20,92.35" fill="rgb(83,93,101)" stroke="#5a5443" stroke-opacity=".15" stroke-width=".45" stroke-linejoin="round"/><polygon points="117.20,92.35 118.03,92.58 120.26,91.18 119.43,90.94" fill="rgb(196,185,161)" stroke="#5a5443" stroke-opacity=".15" stroke-width=".45" stroke-linejoin="round"/><polygon points="156.77,173.64 187.71,154.16 187.71,72.62 156.77,92.09" fill="rgb(164,131,73)" stroke="#5a5443" stroke-opacity=".15" stroke-width=".45" stroke-linejoin="round"/><polygon points="96.61,93.77 108.29,97.04 117.20,91.44 119.43,90.03 107.74,86.76 105.51,88.17" fill="rgb(95,107,117)" stroke="#5a5443" stroke-opacity=".15" stroke-width=".45" stroke-linejoin="round"/><polygon points="108.29,113.44 117.20,107.83 117.20,92.35 117.20,91.44 108.29,97.04" fill="rgb(83,93,101)" stroke="#5a5443" stroke-opacity=".15" stroke-width=".45" stroke-linejoin="round"/><polygon points="96.61,110.17 108.29,113.44 108.29,97.04 96.61,93.77" fill="rgb(90,102,111)" stroke="#5a5443" stroke-opacity=".15" stroke-width=".45" stroke-linejoin="round"/><polygon points="140.08,87.42 156.77,92.09 187.71,72.62 171.02,67.95 157.77,76.28 153.32,79.09" fill="rgb(187,150,85)" stroke="#5a5443" stroke-opacity=".15" stroke-width=".45" stroke-linejoin="round"/><polygon points="140.08,168.96 156.77,173.64 156.77,92.09 140.08,87.42 140.08,131.84" fill="rgb(178,143,80)" stroke="#5a5443" stroke-opacity=".15" stroke-width=".45" stroke-linejoin="round"/></svg>