<svg xmlns="http://www.w3.org/2000/svg" viewBox="0 0 220 210"><rect width="220" height="210" fill="#f3efe6"/><polygon points="90.56,118.56 90.91,118.33 80.94,115.54 80.58,115.77" fill="rgb(95,107,117)" stroke="#5a5443" stroke-opacity=".15" stroke-width=".45" stroke-linejoin="round"/><polygon points="84.98,151.22 90.91,147.48 90.91,120.28 90.56,120.50 84.98,124.01" fill="rgb(83,93,101)" stroke="#5a5443" stroke-opacity=".15" stroke-width=".45" stroke-linejoin="round"/><polygon points="75.00,148.43 84.98,151.22 84.98,124.01 75.00,121.22" fill="rgb(90,102,111)" stroke="#5a5443" stroke-opacity=".15" stroke-width=".45" stroke-linejoin="round"/><polygon points="90.91,120.28 90.91,118.33 90.56,118.56 90.56,120.50" fill="rgb(83,93,101)" stroke="#5a5443" stroke-opacity=".15" stroke-width=".45" stroke-linejoin="round"/><polygon points="71.20,159.88 77.14,156.15 77.14,128.95 71.56,132.46 71.20,132.68" fill="rgb(83,93,101)" stroke="#5a5443" stroke-opacity=".15" stroke-width=".45" stroke-linejoin="round"/><polygon points="126.18,128.52 126.53,128.30 116.56,125.51 116.20,125.73" fill="rgb(95,107,117)" stroke="#5a5443" stroke-opacity=".15" stroke-width=".45" stroke-linejoin="round"/><polygon points="120.60,161.18 126.53,157.44 126.53,130.24 126.18,130.46 120.60,133.98" fill="rgb(83,93,101)" stroke="#5a5443" stroke-opacity=".15" stroke-width=".45" stroke-linejoin="round"/><polygon points="61.23,157.09 71.20,159.88 71.20,132.68 71.20,130.74 61.23,127.95 61.23,129.89" fill="rgb(90,102,111)" stroke="#5a5443" stroke-opacity=".15" stroke-width=".45" stroke-linejoin="round"/><polygon points="110.62,158.39 120.60,161.18 120.60,133.98 110.62,131.19" fill="rgb(90,102,111)" stroke="#5a5443" stroke-opacity=".15" stroke-width=".45" stroke-linejoin="round"/><polygon points="126.53,130.24 126.53,128.30 126.18,128.52 126.18,130.46" fill="rgb(83,93,101)" stroke="#5a5443" stroke-opacity=".15" stroke-width=".45" stroke-linejoin="round"/><polygon points="131.88,95.90 134.85,94.03 80.58,78.85 71.91,76.42 68.95,78.29 83.20,82.28" fill="rgb(112,145,118)" stroke="#5a5443" stroke-opacity=".15" stroke-width=".45" stroke-linejoin="round"/><polygon points="61.23,127.95 71.20,130.74 71.56,130.51 61.58,127.72" fill="rgb(95,107,117)" stroke="#5a5443" stroke-opacity=".15" stroke-width=".45" stroke-linejoin="round"/><polygon points="52.92,127.24 61.58,129.67 61.58,127.72 61.58,90.81 52.92,88.38 52.92,103.03" fill="rgb(106,138,112)" stroke="#5a5443" stroke-opacity=".15" stroke-width=".45" stroke-linejoin="round"/><polygon points="71.56,130.51 71.20,130.74 71.20,132.68 71.56,132.46" fill="rgb(83,93,101)" stroke="#5a5443" stroke-opacity=".15" stroke-width=".45" stroke-linejoin="round"/><polygon points="52.32,100.17 55.88,101.16 55.88,86.51 55.88,60.28 52.32,59.29" fill="rgb(106,138,112)" stroke="#5a5443" stroke-opacity=".15" stroke-width=".45" stroke-linejoin="round"/><polygon points="83.20,82.28 83.20,56.05 83.20,44.31 73.84,50.20 77.46,68.65 80.46,84.00" fill="rgb(97,126,102)" stroke="#5a5443" stroke-opacity=".15" stroke-width=".45" stroke-linejoin="round"/><polygon points="71.56,132.46 97.21,139.63 97.21,137.69 71.56,130.51" fill="rgb(106,138,112)" stroke="#5a5443" stroke-opacity=".15" stroke-width=".45" stroke-linejoin="round"/><polygon points="79.75,90.71 87.35,85.92 77.85,64.95" fill="rgb(171,162,140)" stroke="#5a5443" stroke-opacity=".15" stroke-width=".45" stroke-linejoin="round"/><polygon points="80.70,55.35 82.48,54.23 82.48,28.97 80.70,30.09 80.70,43.62" fill="rgb(171,162,140)" stroke="#5a5443" stroke-opacity=".15" stroke-width=".45" stroke-linejoin="round"/><polygon points="90.20,86.72 87.35,85.92 79.75,90.71 77.02,92.43 79.87,93.22 82.60,91.50" fill="rgb(112,145,118)" stroke="#5a5443" stroke-opacity=".15" stroke-width=".45" stroke-linejoin="round"/><polygon points="129.15,97.61 131.28,96.27 131.88,95.90 83.20,82.28 80.46,84.00 87.35,85.92 90.20,86.72 101.60,89.91 104.45,90.71 115.85,93.89" fill="rgb(112,145,118)" stroke="#5a5443" stroke-opacity=".15" stroke-width=".45" stroke-linejoin="round"/><polygon points="72.86,88.78 79.75,90.71 77.85,64.95 75.87,69.65" fill="rgb(192,182,158)" stroke="#5a5443" stroke-opacity=".15" stroke-width=".45" stroke-linejoin="round"/><polygon points="72.86,88.78 70.13,90.50 77.02,92.43 79.75,90.71" fill="rgb(112,145,118)" stroke="#5a5443" stroke-opacity=".15" stroke-width=".45" stroke-linejoin="round"/><polygon points="70.13,73.26 70.13,90.50 72.86,88.78 75.87,69.65" fill="rgb(97,126,102)" stroke="#5a5443" stroke-opacity=".15" stroke-width=".45" stroke-linejoin="round"/><polygon points="106.82,169.85 112.76,166.11 112.76,138.91 107.18,142.42 106.82,142.65" fill="rgb(83,93,101)" stroke="#5a5443" stroke-opacity=".15" stroke-width=".45" stroke-linejoin="round"/><polygon points="96.85,167.06 106.82,169.85 106.82,142.65 106.82,140.70 96.85,137.91 96.85,139.86" fill="rgb(90,102,111)" stroke="#5a5443" stroke-opacity=".15" stroke-width=".45" stroke-linejoin="round"/><polygon points="115.85,144.85 121.43,141.33 129.26,136.40 134.85,132.89 134.85,130.95 134.85,125.31 131.28,127.55 119.41,135.03 115.85,137.27 115.85,142.90" fill="rgb(97,126,102)" stroke="#5a5443" stroke-opacity=".15" stroke-width=".45" stroke-linejoin="round"/><polygon points="70.13,90.50 70.13,73.26 70.13,64.27 67.64,63.57 55.88,60.28 55.88,86.51" fill="rgb(106,138,112)" stroke="#5a5443" stroke-opacity=".15" stroke-width=".45" stroke-linejoin="round"/><polygon points="134.85,125.31 134.85,94.03 131.88,95.90 131.28,96.27 131.28,110.07 131.28,127.55" fill="rgb(97,126,102)" stroke="#5a5443" stroke-opacity=".15" stroke-width=".45" stroke-linejoin="round"/><polygon points="94.00,94.69 101.60,89.91 92.10,68.65" fill="rgb(171,162,140)" stroke="#5a5443" stroke-opacity=".15" stroke-width=".45" stroke-linejoin="round"/><polygon points="33.80,30.46 65.86,39.43 67.64,38.31 80.70,30.09 82.48,28.97 50.42,20.00" fill="rgb(196,185,161)" stroke="#5a5443" stroke-opacity=".15" stroke-width=".45" stroke-linejoin="round"/><polygon points="82.60,91.50 94.00,94.69 92.10,68.65" fill="rgb(192,182,158)" stroke="#5a5443" stroke-opacity=".15" stroke-width=".45" stroke-linejoin="round"/><polygon points="115.85,142.90 115.85,137.27 115.85,105.98 61.58,90.81 61.58,127.72 71.56,130.51 97.21,137.69 107.18,140.48" fill="rgb(106,138,112)" stroke="#5a5443" stroke-opacity=".15" stroke-width=".45" stroke-linejoin="round"/><polygon points="82.60,91.50 79.87,93.22 91.27,96.41 94.00,94.69" fill="rgb(112,145,118)" stroke="#5a5443" stroke-opacity=".15" stroke-width=".45" stroke-linejoin="round"/><polygon points="104.45,90.71 101.60,89.91 94.00,94.69 91.27,96.41 94.12,97.21 96.85,95.49" fill="rgb(112,145,118)" stroke="#5a5443" stroke-opacity=".15" stroke-width=".45" stroke-linejoin="round"/><polygon points="73.84,50.20 70.13,52.53 70.13,64.27 70.13,73.26 75.87,69.65 77.46,68.65" fill="rgb(97,126,102)" stroke="#5a5443" stroke-opacity=".15" stroke-width=".45" stroke-linejoin="round"/><polygon points="33.80,55.72 50.54,60.41 65.86,64.69 65.86,39.43 33.80,30.46" fill="rgb(187,176,153)" stroke="#5a5443" stroke-opacity=".15" stroke-width=".45" stroke-linejoin="round"/><polygon points="96.85,137.91 106.82,140.70 107.18,140.48 97.21,137.69" fill="rgb(95,107,117)" stroke="#5a5443" stroke-opacity=".15" stroke-width=".45" stroke-linejoin="round"/><polygon points="67.64,51.84 70.13,52.53 73.84,50.20 83.20,44.31 80.70,43.62" fill="rgb(112,145,118)" stroke="#5a5443" stroke-opacity=".15" stroke-width=".45" stroke-linejoin="round"/><polygon points="52.92,88.38 61.58,90.81 115.85,105.98 118.82,104.12 105.52,100.40 94.12,97.21 91.27,96.41 79.87,93.22 77.02,92.43 70.13,90.50 55.88,86.51" fill="rgb(112,145,118)" stroke="#5a5443" stroke-opacity=".15" stroke-width=".45" stroke-linejoin="round"/><polygon points="80.70,43.62 80.70,30.09 67.64,38.31 67.64,51.84" fill="rgb(171,162,140)" stroke="#5a5443" stroke-opacity=".15" stroke-width=".45" stroke-linejoin="round"/><polygon points="107.18,140.48 106.82,140.70 106.82,142.65 107.18,142.42" fill="rgb(83,93,101)" stroke="#5a5443" stroke-opacity=".15" stroke-width=".45" stroke-linejoin="round"/><polygon points="107.18,142.42 115.85,144.85 115.85,142.90 107.18,140.48" fill="rgb(106,138,112)" stroke="#5a5443" stroke-opacity=".15" stroke-width=".45" stroke-linejoin="round"/><polygon points="70.13,64.27 70.13,52.53 67.64,51.84 67.64,63.57" fill="rgb(106,138,112)" stroke="#5a5443" stroke-opacity=".15" stroke-width=".45" stroke-linejoin="round"/><polygon points="108.25,98.68 115.85,93.89 106.35,75.63" fill="rgb(171,162,140)" stroke="#5a5443" stroke-opacity=".15" stroke-width=".45" stroke-linejoin="round"/><polygon points="148.20,124.51 148.20,114.80 147.02,115.55 147.02,125.26" fill="rgb(97,126,102)" stroke="#5a5443" stroke-opacity=".15" stroke-width=".45" stroke-linejoin="round"/><polygon points="96.85,95.49 108.25,98.68 106.35,75.63" fill="rgb(193,183,158)" stroke="#5a5443" stroke-opacity=".15" stroke-width=".45" stroke-linejoin="round"/><polygon points="96.85,95.49 94.12,97.21 105.52,100.40 108.25,98.68" fill="rgb(112,145,118)" stroke="#5a5443" stroke-opacity=".15" stroke-width=".45" stroke-linejoin="round"/><polygon points="147.02,115.55 148.20,114.80 146.42,114.30 145.24,115.05" fill="rgb(112,145,118)" stroke="#5a5443" stroke-opacity=".15" stroke-width=".45" stroke-linejoin="round"/><polygon points="131.28,96.27 129.15,97.61 119.41,103.74 119.41,117.54 131.28,110.07" fill="rgb(97,126,102)" stroke="#5a5443" stroke-opacity=".15" stroke-width=".45" stroke-linejoin="round"/><polygon points="65.86,64.69 67.64,63.57 67.64,51.84 67.64,38.31 65.86,39.43" fill="rgb(171,162,140)" stroke="#5a5443" stroke-opacity=".15" stroke-width=".45" stroke-linejoin="round"/><polygon points="136.33,139.76 148.20,132.29 148.20,124.51 147.02,125.26 137.52,131.24 136.33,131.99" fill="rgb(97,126,102)" stroke="#5a5443" stroke-opacity=".15" stroke-width=".45" stroke-linejoin="round"/><polygon points="118.82,104.12 119.41,103.74 129.15,97.61 115.85,93.89 108.25,98.68 105.52,100.40" fill="rgb(112,145,118)" stroke="#5a5443" stroke-opacity=".15" stroke-width=".45" stroke-linejoin="round"/><polygon points="119.41,117.54 134.55,121.77 135.74,121.03 145.24,115.05 146.42,114.30 131.28,110.07" fill="rgb(112,145,118)" stroke="#5a5443" stroke-opacity=".15" stroke-width=".45" stroke-linejoin="round"/><polygon points="119.41,103.74 118.82,104.12 115.85,105.98 115.85,137.27 119.41,135.03 119.41,117.54" fill="rgb(97,126,102)" stroke="#5a5443" stroke-opacity=".15" stroke-width=".45" stroke-linejoin="round"/><polygon points="119.41,135.03 136.33,139.76 136.33,131.99 136.33,122.27 134.55,121.77 119.41,117.54" fill="rgb(106,138,112)" stroke="#5a5443" stroke-opacity=".15" stroke-width=".45" stroke-linejoin="round"/><polygon points="137.52,121.52 136.33,122.27 136.33,131.99 137.52,131.24" fill="rgb(97,126,102)" stroke="#5a5443" stroke-opacity=".15" stroke-width=".45" stroke-linejoin="round"/><polygon points="164.83,122.47 164.83,120.53 164.83,116.64 163.64,117.39 163.64,123.22" fill="rgb(97,126,102)" stroke="#5a5443" stroke-opacity=".15" stroke-width=".45" stroke-linejoin="round"/><polygon points="163.64,117.39 164.83,116.64 163.05,116.14 161.86,116.89" fill="rgb(112,145,118)" stroke="#5a5443" stroke-opacity=".15" stroke-width=".45" stroke-linejoin="round"/><polygon points="134.55,121.77 136.33,122.27 137.52,121.52 135.74,121.03" fill="rgb(112,145,118)" stroke="#5a5443" stroke-opacity=".15" stroke-width=".45" stroke-linejoin="round"/><polygon points="135.74,117.14 153.55,122.12 154.73,121.38 161.86,116.89 163.05,116.14 145.24,111.16" fill="rgb(112,145,118)" stroke="#5a5443" stroke-opacity=".15" stroke-width=".45" stroke-linejoin="round"/><polygon points="155.33,136.22 164.83,130.24 164.83,122.47 163.64,123.22 156.52,127.70 155.33,128.45" fill="rgb(97,126,102)" stroke="#5a5443" stroke-opacity=".15" stroke-width=".45" stroke-linejoin="round"/><polygon points="137.52,131.24 155.33,136.22 155.33,128.45 155.33,126.51 137.52,121.52" fill="rgb(106,138,112)" stroke="#5a5443" stroke-opacity=".15" stroke-width=".45" stroke-linejoin="round"/><polygon points="155.33,126.51 155.33,122.62 153.55,122.12 135.74,117.14 135.74,121.03 137.52,121.52" fill="rgb(106,138,112)" stroke="#5a5443" stroke-opacity=".15" stroke-width=".45" stroke-linejoin="round"/><polygon points="156.52,121.87 155.33,122.62 155.33,126.51 155.33,128.45 156.52,127.70" fill="rgb(97,126,102)" stroke="#5a5443" stroke-opacity=".15" stroke-width=".45" stroke-linejoin="round"/><polygon points="153.55,122.12 155.33,122.62 156.52,121.87 154.73,121.38" fill="rgb(112,145,118)" stroke="#5a5443" stroke-opacity=".15" stroke-width=".45" stroke-linejoin="round"/><polygon points="154.73,117.49 174.33,122.97 181.45,118.49 161.86,113.00" fill="rgb(112,145,118)" stroke="#5a5443" stroke-opacity=".15" stroke-width=".45" stroke-linejoin="round"/><polygon points="156.52,127.70 174.33,132.68 174.33,126.86 156.52,121.87" fill="rgb(106,138,112)" stroke="#5a5443" stroke-opacity=".15" stroke-width=".45" stroke-linejoin="round"/><polygon points="174.33,126.86 174.33,122.97 154.73,117.49 154.73,121.38 156.52,121.87" fill="rgb(106,138,112)" stroke="#5a5443" stroke-opacity=".15" stroke-width=".45" stroke-linejoin="round"/><polygon points="174.33,132.68 181.45,128.20 181.45,122.37 181.45,118.49 174.33,122.97 174.33,126.86" fill="rgb(97,126,102)" stroke="#5a5443" stroke-opacity=".15" stroke-width=".45" stroke-linejoin="round"/></svg>