<svg xmlns="http://www.w3.org/2000/svg" viewBox="0 0 220 210"><rect width="220" height="210" fill="#f3efe6"/><polygon points="51.24,151.95 56.35,153.38 71.85,143.62 83.43,136.33 87.01,134.08 81.90,132.65" fill="rgb(95,107,117)" stroke="#5a5443" stroke-opacity=".15" stroke-width=".45" stroke-linejoin="round"/><polygon points="114.60,145.05 97.74,140.33 86.16,147.62 87.43,147.98 103.02,152.34" fill="rgb(95,107,117)" stroke="#5a5443" stroke-opacity=".15" stroke-width=".45" stroke-linejoin="round"/><polygon points="165.18,159.20 168.76,156.95 87.01,134.08 83.43,136.33 97.74,140.33 114.60,145.05 128.91,149.05 145.77,153.77 160.07,157.77" fill="rgb(95,107,117)" stroke="#5a5443" stroke-opacity=".15" stroke-width=".45" stroke-linejoin="round"/><polygon points="56.35,153.38 71.93,157.74 74.15,156.34 85.73,149.05 87.43,147.98 86.16,147.62 71.85,143.62" fill="rgb(95,107,117)" stroke="#5a5443" stroke-opacity=".15" stroke-width=".45" stroke-linejoin="round"/><polygon points="86.16,147.62 97.74,140.33 97.74,80.53 96.72,81.17 86.16,87.82" fill="rgb(171,162,140)" stroke="#5a5443" stroke-opacity=".15" stroke-width=".45" stroke-linejoin="round"/><polygon points="71.85,143.62 86.16,147.62 86.16,87.82 71.85,83.82" fill="rgb(187,176,153)" stroke="#5a5443" stroke-opacity=".15" stroke-width=".45" stroke-linejoin="round"/><polygon points="145.77,153.77 128.91,149.05 117.32,156.34 134.19,161.06" fill="rgb(95,107,117)" stroke="#5a5443" stroke-opacity=".15" stroke-width=".45" stroke-linejoin="round"/><polygon points="97.74,80.53 97.74,66.89 93.25,69.72 96.72,81.17" fill="rgb(171,162,140)" stroke="#5a5443" stroke-opacity=".15" stroke-width=".45" stroke-linejoin="round"/><polygon points="117.32,156.34 128.91,149.05 128.91,102.14 117.32,109.43" fill="rgb(171,162,140)" stroke="#5a5443" stroke-opacity=".15" stroke-width=".45" stroke-linejoin="round"/><polygon points="96.72,50.99 97.74,50.34 83.43,46.34 82.41,46.99" fill="rgb(196,185,161)" stroke="#5a5443" stroke-opacity=".15" stroke-width=".45" stroke-linejoin="round"/><polygon points="151.90,167.56 153.60,166.49 148.49,165.06 134.19,161.06 117.32,156.34 103.02,152.34 87.43,147.98 85.73,149.05 100.04,153.06 116.90,157.77 131.20,161.77" fill="rgb(95,107,117)" stroke="#5a5443" stroke-opacity=".15" stroke-width=".45" stroke-linejoin="round"/><polygon points="116.90,157.77 100.04,153.06 88.45,160.34 105.32,165.06" fill="rgb(95,107,117)" stroke="#5a5443" stroke-opacity=".15" stroke-width=".45" stroke-linejoin="round"/><polygon points="93.25,69.72 86.16,74.18 86.16,87.82 96.72,81.17" fill="rgb(171,162,140)" stroke="#5a5443" stroke-opacity=".15" stroke-width=".45" stroke-linejoin="round"/><polygon points="103.02,152.34 117.32,156.34 117.32,109.43 103.02,105.43" fill="rgb(187,176,153)" stroke="#5a5443" stroke-opacity=".15" stroke-width=".45" stroke-linejoin="round"/><polygon points="86.16,87.82 86.16,74.18 71.85,70.18 71.85,83.82" fill="rgb(187,176,153)" stroke="#5a5443" stroke-opacity=".15" stroke-width=".45" stroke-linejoin="round"/><polygon points="127.88,89.89 128.91,89.25 114.60,85.24 113.58,85.89" fill="rgb(196,185,161)" stroke="#5a5443" stroke-opacity=".15" stroke-width=".45" stroke-linejoin="round"/><polygon points="51.24,161.70 138.10,186.00 138.10,176.25 71.93,157.74 56.35,153.38 51.24,151.95" fill="rgb(90,102,111)" stroke="#5a5443" stroke-opacity=".15" stroke-width=".45" stroke-linejoin="round"/><polygon points="97.74,66.89 97.74,50.34 96.72,50.99 87.18,56.99 86.16,57.63 86.16,74.18 93.25,69.72" fill="rgb(171,162,140)" stroke="#5a5443" stroke-opacity=".15" stroke-width=".45" stroke-linejoin="round"/><polygon points="153.60,166.49 165.18,159.20 160.07,157.77 148.49,165.06" fill="rgb(95,107,117)" stroke="#5a5443" stroke-opacity=".15" stroke-width=".45" stroke-linejoin="round"/><polygon points="86.16,74.18 86.16,57.63 71.85,53.63 71.85,70.18" fill="rgb(187,176,153)" stroke="#5a5443" stroke-opacity=".15" stroke-width=".45" stroke-linejoin="round"/><polygon points="88.45,160.34 100.04,153.06 100.04,93.25 88.45,100.54" fill="rgb(171,162,140)" stroke="#5a5443" stroke-opacity=".15" stroke-width=".45" stroke-linejoin="round"/><polygon points="87.18,56.99 96.72,50.99 84.79,31.53" fill="rgb(97,126,102)" stroke="#5a5443" stroke-opacity=".15" stroke-width=".45" stroke-linejoin="round"/><polygon points="71.85,53.63 86.16,57.63 87.18,56.99 72.87,52.99" fill="rgb(196,185,161)" stroke="#5a5443" stroke-opacity=".15" stroke-width=".45" stroke-linejoin="round"/><polygon points="128.91,102.14 128.91,89.25 127.88,89.89 118.35,95.89 117.32,96.54 117.32,109.43" fill="rgb(171,162,140)" stroke="#5a5443" stroke-opacity=".15" stroke-width=".45" stroke-linejoin="round"/><polygon points="72.87,52.99 87.18,56.99 84.79,31.53" fill="rgb(111,144,117)" stroke="#5a5443" stroke-opacity=".15" stroke-width=".45" stroke-linejoin="round"/><polygon points="74.15,156.34 88.45,160.34 88.45,100.54 74.15,96.54" fill="rgb(187,176,153)" stroke="#5a5443" stroke-opacity=".15" stroke-width=".45" stroke-linejoin="round"/><polygon points="71.93,157.74 138.10,176.25 140.32,174.85 119.62,169.06 105.32,165.06 88.45,160.34 74.15,156.34" fill="rgb(95,107,117)" stroke="#5a5443" stroke-opacity=".15" stroke-width=".45" stroke-linejoin="round"/><polygon points="117.32,109.43 117.32,96.54 103.02,92.53 103.02,105.43" fill="rgb(187,176,153)" stroke="#5a5443" stroke-opacity=".15" stroke-width=".45" stroke-linejoin="round"/><polygon points="138.10,186.00 168.76,166.70 168.76,156.95 165.18,159.20 153.60,166.49 151.90,167.56 140.32,174.85 138.10,176.25" fill="rgb(83,93,101)" stroke="#5a5443" stroke-opacity=".15" stroke-width=".45" stroke-linejoin="round"/><polygon points="118.35,95.89 127.88,89.89 115.96,72.14 116.61,78.62" fill="rgb(97,127,103)" stroke="#5a5443" stroke-opacity=".15" stroke-width=".45" stroke-linejoin="round"/><polygon points="103.02,92.53 117.32,96.54 118.35,95.89 104.04,91.89" fill="rgb(196,185,161)" stroke="#5a5443" stroke-opacity=".15" stroke-width=".45" stroke-linejoin="round"/><polygon points="104.04,91.89 118.35,95.89 116.61,78.62 112.71,77.53" fill="rgb(111,144,117)" stroke="#5a5443" stroke-opacity=".15" stroke-width=".45" stroke-linejoin="round"/><polygon points="99.01,80.26 100.04,79.62 85.73,75.61 84.71,76.26" fill="rgb(196,185,161)" stroke="#5a5443" stroke-opacity=".15" stroke-width=".45" stroke-linejoin="round"/><polygon points="116.61,78.62 115.96,72.14 112.71,77.53" fill="rgb(111,144,117)" stroke="#5a5443" stroke-opacity=".15" stroke-width=".45" stroke-linejoin="round"/><polygon points="134.19,161.06 148.49,165.06 148.49,118.15 134.19,114.15" fill="rgb(187,176,153)" stroke="#5a5443" stroke-opacity=".15" stroke-width=".45" stroke-linejoin="round"/><polygon points="140.32,174.85 151.90,167.56 131.20,161.77 119.62,169.06" fill="rgb(95,107,117)" stroke="#5a5443" stroke-opacity=".15" stroke-width=".45" stroke-linejoin="round"/><polygon points="130.18,115.50 131.20,114.86 116.90,110.86 115.88,111.50" fill="rgb(196,185,161)" stroke="#5a5443" stroke-opacity=".15" stroke-width=".45" stroke-linejoin="round"/><polygon points="100.04,93.25 100.04,79.62 99.01,80.26 89.48,86.26 88.45,86.90 88.45,100.54" fill="rgb(171,162,140)" stroke="#5a5443" stroke-opacity=".15" stroke-width=".45" stroke-linejoin="round"/><polygon points="105.32,165.06 119.62,169.06 119.62,122.15 105.32,118.15" fill="rgb(187,176,153)" stroke="#5a5443" stroke-opacity=".15" stroke-width=".45" stroke-linejoin="round"/><polygon points="119.62,169.06 131.20,161.77 131.20,114.86 130.18,115.50 120.64,121.51 119.62,122.15" fill="rgb(171,162,140)" stroke="#5a5443" stroke-opacity=".15" stroke-width=".45" stroke-linejoin="round"/><polygon points="88.45,100.54 88.45,86.90 74.15,82.90 74.15,96.54" fill="rgb(187,176,153)" stroke="#5a5443" stroke-opacity=".15" stroke-width=".45" stroke-linejoin="round"/><polygon points="89.48,86.26 99.01,80.26 87.09,66.70" fill="rgb(99,129,104)" stroke="#5a5443" stroke-opacity=".15" stroke-width=".45" stroke-linejoin="round"/><polygon points="75.17,82.26 89.48,86.26 87.09,66.70" fill="rgb(112,145,118)" stroke="#5a5443" stroke-opacity=".15" stroke-width=".45" stroke-linejoin="round"/><polygon points="74.15,82.90 88.45,86.90 89.48,86.26 75.17,82.26" fill="rgb(196,185,161)" stroke="#5a5443" stroke-opacity=".15" stroke-width=".45" stroke-linejoin="round"/><polygon points="148.49,118.15 148.49,105.25 134.19,101.25 134.19,114.15" fill="rgb(187,176,153)" stroke="#5a5443" stroke-opacity=".15" stroke-width=".45" stroke-linejoin="round"/><polygon points="148.49,165.06 160.07,157.77 160.07,97.97 160.07,84.33 160.07,66.46 159.05,67.10 149.51,73.11 148.49,73.75 148.49,91.62 148.49,105.25 148.49,118.15" fill="rgb(171,162,140)" stroke="#5a5443" stroke-opacity=".15" stroke-width=".45" stroke-linejoin="round"/><polygon points="159.05,67.10 160.07,66.46 145.77,62.46 144.74,63.10" fill="rgb(196,185,161)" stroke="#5a5443" stroke-opacity=".15" stroke-width=".45" stroke-linejoin="round"/><polygon points="105.32,118.15 119.62,122.15 120.64,121.51 106.34,117.51" fill="rgb(196,185,161)" stroke="#5a5443" stroke-opacity=".15" stroke-width=".45" stroke-linejoin="round"/><polygon points="120.64,121.51 130.18,115.50 118.26,81.74" fill="rgb(97,126,102)" stroke="#5a5443" stroke-opacity=".15" stroke-width=".45" stroke-linejoin="round"/><polygon points="148.49,105.25 148.49,91.62 134.19,87.62 134.19,101.25" fill="rgb(187,176,153)" stroke="#5a5443" stroke-opacity=".15" stroke-width=".45" stroke-linejoin="round"/><polygon points="106.34,117.51 120.64,121.51 118.26,81.74" fill="rgb(109,142,115)" stroke="#5a5443" stroke-opacity=".15" stroke-width=".45" stroke-linejoin="round"/><polygon points="148.49,91.62 148.49,73.75 134.19,69.75 134.19,87.62" fill="rgb(187,176,153)" stroke="#5a5443" stroke-opacity=".15" stroke-width=".45" stroke-linejoin="round"/><polygon points="149.51,73.11 159.05,67.10 147.13,46.76" fill="rgb(97,126,102)" stroke="#5a5443" stroke-opacity=".15" stroke-width=".45" stroke-linejoin="round"/><polygon points="134.19,69.75 148.49,73.75 149.51,73.11 135.21,69.10" fill="rgb(196,185,161)" stroke="#5a5443" stroke-opacity=".15" stroke-width=".45" stroke-linejoin="round"/><polygon points="135.21,69.10 149.51,73.11 147.13,46.76" fill="rgb(111,143,116)" stroke="#5a5443" stroke-opacity=".15" stroke-width=".45" stroke-linejoin="round"/></svg>