<svg xmlns="http://www.w3.org/2000/svg" viewBox="0 0 220 210"><rect width="220" height="210" fill="#f3efe6"/><polygon points="117.78,137.03 94.65,130.56 91.85,132.32 110.09,137.42 114.98,138.79 115.05,138.75" fill="rgb(95,107,117)" stroke="#5a5443" stroke-opacity=".15" stroke-width=".45" stroke-linejoin="round"/><polygon points="53.35,149.91 60.66,151.95 79.70,139.97 91.85,132.32 94.65,130.56 87.34,128.52" fill="rgb(95,107,117)" stroke="#5a5443" stroke-opacity=".15" stroke-width=".45" stroke-linejoin="round"/><polygon points="114.98,138.79 110.09,137.42 97.93,145.07 102.83,146.44" fill="rgb(95,107,117)" stroke="#5a5443" stroke-opacity=".15" stroke-width=".45" stroke-linejoin="round"/><polygon points="163.92,152.42 166.65,150.70 117.78,137.03 115.05,138.75 133.48,143.91" fill="rgb(95,107,117)" stroke="#5a5443" stroke-opacity=".15" stroke-width=".45" stroke-linejoin="round"/><polygon points="98.17,149.37 102.76,146.48 102.83,146.44 97.93,145.07 80.56,140.21 75.90,143.14 92.41,147.76" fill="rgb(95,107,117)" stroke="#5a5443" stroke-opacity=".15" stroke-width=".45" stroke-linejoin="round"/><polygon points="60.66,151.95 61.52,152.19 64.89,150.07 75.90,143.14 80.56,140.21 79.70,139.97" fill="rgb(95,107,117)" stroke="#5a5443" stroke-opacity=".15" stroke-width=".45" stroke-linejoin="round"/><polygon points="79.70,139.97 80.56,140.21 97.93,145.07 97.93,82.57 79.70,77.47" fill="rgb(187,176,153)" stroke="#5a5443" stroke-opacity=".15" stroke-width=".45" stroke-linejoin="round"/><polygon points="163.85,152.46 163.92,152.42 133.48,143.91 133.41,143.95 139.96,145.78" fill="rgb(95,107,117)" stroke="#5a5443" stroke-opacity=".15" stroke-width=".45" stroke-linejoin="round"/><polygon points="97.93,145.07 110.09,137.42 110.09,74.92 97.93,82.57" fill="rgb(171,162,140)" stroke="#5a5443" stroke-opacity=".15" stroke-width=".45" stroke-linejoin="round"/><polygon points="139.96,145.78 133.41,143.95 121.26,151.60 127.80,153.43 128.90,152.74 138.86,146.47" fill="rgb(95,107,117)" stroke="#5a5443" stroke-opacity=".15" stroke-width=".45" stroke-linejoin="round"/><polygon points="162.76,153.15 163.85,152.46 139.96,145.78 138.86,146.47 153.80,150.65" fill="rgb(95,107,117)" stroke="#5a5443" stroke-opacity=".15" stroke-width=".45" stroke-linejoin="round"/><polygon points="121.19,151.64 121.26,151.60 133.41,143.95 133.48,143.91 133.48,93.72 132.31,94.45 121.19,101.45" fill="rgb(164,131,73)" stroke="#5a5443" stroke-opacity=".15" stroke-width=".45" stroke-linejoin="round"/><polygon points="87.16,156.30 98.17,149.37 92.41,147.76 81.40,154.69" fill="rgb(95,107,117)" stroke="#5a5443" stroke-opacity=".15" stroke-width=".45" stroke-linejoin="round"/><polygon points="83.79,158.42 83.84,158.44 86.60,156.70 98.82,149.01 102.81,146.50 102.76,146.48 98.17,149.37 87.16,156.30" fill="rgb(95,107,117)" stroke="#5a5443" stroke-opacity=".15" stroke-width=".45" stroke-linejoin="round"/><polygon points="102.76,146.48 102.81,146.50 121.19,151.64 121.19,101.45 102.76,96.30" fill="rgb(178,143,80)" stroke="#5a5443" stroke-opacity=".15" stroke-width=".45" stroke-linejoin="round"/><polygon points="147.65,162.66 151.63,160.15 121.19,151.64 102.81,146.50 98.82,149.01 117.16,154.13 124.13,156.08" fill="rgb(95,107,117)" stroke="#5a5443" stroke-opacity=".15" stroke-width=".45" stroke-linejoin="round"/><polygon points="61.52,152.19 83.79,158.42 87.16,156.30 81.40,154.69 64.89,150.07" fill="rgb(95,107,117)" stroke="#5a5443" stroke-opacity=".15" stroke-width=".45" stroke-linejoin="round"/><polygon points="152.80,159.42 162.76,153.15 153.80,150.65 143.84,156.91" fill="rgb(95,107,117)" stroke="#5a5443" stroke-opacity=".15" stroke-width=".45" stroke-linejoin="round"/><polygon points="151.63,160.15 151.70,160.11 127.80,153.43 121.26,151.60 121.19,151.64" fill="rgb(95,107,117)" stroke="#5a5443" stroke-opacity=".15" stroke-width=".45" stroke-linejoin="round"/><polygon points="110.09,74.92 110.09,66.38 97.93,74.03 97.93,82.57" fill="rgb(171,162,140)" stroke="#5a5443" stroke-opacity=".15" stroke-width=".45" stroke-linejoin="round"/><polygon points="151.70,160.11 152.80,159.42 143.84,156.91 128.90,152.74 127.80,153.43" fill="rgb(95,107,117)" stroke="#5a5443" stroke-opacity=".15" stroke-width=".45" stroke-linejoin="round"/><polygon points="97.93,82.57 97.93,74.03 79.70,68.93 79.70,77.47" fill="rgb(187,176,153)" stroke="#5a5443" stroke-opacity=".15" stroke-width=".45" stroke-linejoin="round"/><polygon points="110.09,66.38 110.09,61.59 97.93,69.24 97.93,74.03" fill="rgb(171,162,140)" stroke="#5a5443" stroke-opacity=".15" stroke-width=".45" stroke-linejoin="round"/><polygon points="53.35,163.81 132.66,186.00 132.66,172.09 83.84,158.44 83.79,158.42 61.52,152.19 60.66,151.95 53.35,149.91" fill="rgb(90,102,111)" stroke="#5a5443" stroke-opacity=".15" stroke-width=".45" stroke-linejoin="round"/><polygon points="81.40,154.69 92.41,147.76 92.41,85.26 81.40,92.19" fill="rgb(164,131,73)" stroke="#5a5443" stroke-opacity=".15" stroke-width=".45" stroke-linejoin="round"/><polygon points="97.93,74.03 97.93,69.24 79.70,64.14 79.70,68.93" fill="rgb(187,176,153)" stroke="#5a5443" stroke-opacity=".15" stroke-width=".45" stroke-linejoin="round"/><polygon points="97.93,69.24 110.09,61.59 94.89,38.58" fill="rgb(172,162,140)" stroke="#5a5443" stroke-opacity=".15" stroke-width=".45" stroke-linejoin="round"/><polygon points="133.48,93.72 133.48,68.08 133.41,68.12 126.52,72.46 132.31,94.45" fill="rgb(164,131,73)" stroke="#5a5443" stroke-opacity=".15" stroke-width=".45" stroke-linejoin="round"/><polygon points="64.89,150.07 81.40,154.69 81.40,92.19 64.89,87.57" fill="rgb(178,143,80)" stroke="#5a5443" stroke-opacity=".15" stroke-width=".45" stroke-linejoin="round"/><polygon points="143.84,156.91 153.80,150.65 153.80,100.46 143.84,106.73" fill="rgb(171,162,140)" stroke="#5a5443" stroke-opacity=".15" stroke-width=".45" stroke-linejoin="round"/><polygon points="79.70,64.14 97.93,69.24 94.89,38.58" fill="rgb(194,184,159)" stroke="#5a5443" stroke-opacity=".15" stroke-width=".45" stroke-linejoin="round"/><polygon points="124.13,156.08 117.16,154.13 104.94,161.83 111.91,163.78 113.29,162.90 122.74,156.96" fill="rgb(95,107,117)" stroke="#5a5443" stroke-opacity=".15" stroke-width=".45" stroke-linejoin="round"/><polygon points="146.26,163.53 147.65,162.66 124.13,156.08 122.74,156.96 136.92,160.92" fill="rgb(95,107,117)" stroke="#5a5443" stroke-opacity=".15" stroke-width=".45" stroke-linejoin="round"/><polygon points="128.90,152.74 143.84,156.91 143.84,106.73 128.90,102.55" fill="rgb(187,176,153)" stroke="#5a5443" stroke-opacity=".15" stroke-width=".45" stroke-linejoin="round"/><polygon points="132.66,186.00 166.65,164.61 166.65,150.70 163.92,152.42 163.85,152.46 162.76,153.15 152.80,159.42 151.70,160.11 151.63,160.15 147.65,162.66 146.26,163.53 136.81,169.48 135.43,170.35 132.66,172.09" fill="rgb(83,93,101)" stroke="#5a5443" stroke-opacity=".15" stroke-width=".45" stroke-linejoin="round"/><polygon points="133.48,68.08 133.48,62.38 131.99,63.31 133.41,68.12" fill="rgb(164,131,73)" stroke="#5a5443" stroke-opacity=".15" stroke-width=".45" stroke-linejoin="round"/><polygon points="121.19,101.45 121.19,75.81 102.76,70.65 102.76,75.45 102.76,83.98 102.76,96.30" fill="rgb(178,143,80)" stroke="#5a5443" stroke-opacity=".15" stroke-width=".45" stroke-linejoin="round"/><polygon points="126.52,72.46 121.19,75.81 121.19,101.45 132.31,94.45" fill="rgb(164,131,73)" stroke="#5a5443" stroke-opacity=".15" stroke-width=".45" stroke-linejoin="round"/><polygon points="92.41,82.07 92.41,76.73 91.40,77.36" fill="rgb(164,131,73)" stroke="#5a5443" stroke-opacity=".15" stroke-width=".45" stroke-linejoin="round"/><polygon points="104.94,161.83 117.16,154.13 117.16,103.95 104.94,111.64" fill="rgb(171,162,140)" stroke="#5a5443" stroke-opacity=".15" stroke-width=".45" stroke-linejoin="round"/><polygon points="83.84,158.44 132.66,172.09 135.43,170.35 111.91,163.78 104.94,161.83 86.60,156.70" fill="rgb(95,107,117)" stroke="#5a5443" stroke-opacity=".15" stroke-width=".45" stroke-linejoin="round"/><polygon points="131.99,63.31 121.19,70.11 121.19,75.81 126.52,72.46 133.41,68.12" fill="rgb(164,131,73)" stroke="#5a5443" stroke-opacity=".15" stroke-width=".45" stroke-linejoin="round"/><polygon points="121.19,70.11 131.99,63.31 133.48,62.38 118.12,44.43" fill="rgb(166,133,74)" stroke="#5a5443" stroke-opacity=".15" stroke-width=".45" stroke-linejoin="round"/><polygon points="92.41,85.26 92.41,82.07 91.40,77.36 81.40,83.65 81.40,92.19" fill="rgb(164,131,73)" stroke="#5a5443" stroke-opacity=".15" stroke-width=".45" stroke-linejoin="round"/><polygon points="136.81,169.48 146.26,163.53 136.92,160.92 127.47,166.87" fill="rgb(95,107,117)" stroke="#5a5443" stroke-opacity=".15" stroke-width=".45" stroke-linejoin="round"/><polygon points="143.84,106.73 153.80,100.46 141.35,79.49" fill="rgb(171,162,140)" stroke="#5a5443" stroke-opacity=".15" stroke-width=".45" stroke-linejoin="round"/><polygon points="121.19,75.81 121.19,70.11 102.76,64.95 102.76,70.65" fill="rgb(178,143,80)" stroke="#5a5443" stroke-opacity=".15" stroke-width=".45" stroke-linejoin="round"/><polygon points="128.90,102.55 143.84,106.73 141.35,79.49" fill="rgb(194,183,159)" stroke="#5a5443" stroke-opacity=".15" stroke-width=".45" stroke-linejoin="round"/><polygon points="102.76,64.95 121.19,70.11 118.12,44.43" fill="rgb(187,150,85)" stroke="#5a5443" stroke-opacity=".15" stroke-width=".45" stroke-linejoin="round"/><polygon points="81.40,92.19 81.40,83.65 64.89,79.04 64.89,87.57" fill="rgb(178,143,80)" stroke="#5a5443" stroke-opacity=".15" stroke-width=".45" stroke-linejoin="round"/><polygon points="135.43,170.35 136.81,169.48 127.47,166.87 113.29,162.90 111.91,163.78" fill="rgb(95,107,117)" stroke="#5a5443" stroke-opacity=".15" stroke-width=".45" stroke-linejoin="round"/><polygon points="81.40,83.65 91.40,77.36 92.41,76.73 78.65,40.40" fill="rgb(164,131,73)" stroke="#5a5443" stroke-opacity=".15" stroke-width=".45" stroke-linejoin="round"/><polygon points="86.60,156.70 104.94,161.83 104.94,111.64 104.94,99.33 86.60,94.20" fill="rgb(187,176,153)" stroke="#5a5443" stroke-opacity=".15" stroke-width=".45" stroke-linejoin="round"/><polygon points="127.47,166.87 136.92,160.92 136.92,127.56 127.47,133.51" fill="rgb(164,131,73)" stroke="#5a5443" stroke-opacity=".15" stroke-width=".45" stroke-linejoin="round"/><polygon points="113.29,162.90 127.47,166.87 127.47,133.51 113.29,129.54" fill="rgb(178,143,80)" stroke="#5a5443" stroke-opacity=".15" stroke-width=".45" stroke-linejoin="round"/><polygon points="64.89,79.04 81.40,83.65 78.65,40.40" fill="rgb(183,147,83)" stroke="#5a5443" stroke-opacity=".15" stroke-width=".45" stroke-linejoin="round"/><polygon points="117.16,103.95 117.16,91.63 104.94,99.33 104.94,111.64" fill="rgb(171,162,140)" stroke="#5a5443" stroke-opacity=".15" stroke-width=".45" stroke-linejoin="round"/><polygon points="104.94,99.33 117.16,91.63 108.13,73.36 103.13,76.51" fill="rgb(171,162,140)" stroke="#5a5443" stroke-opacity=".15" stroke-width=".45" stroke-linejoin="round"/><polygon points="113.29,129.54 127.47,133.51 125.58,100.40 122.76,99.61" fill="rgb(183,146,82)" stroke="#5a5443" stroke-opacity=".15" stroke-width=".45" stroke-linejoin="round"/><polygon points="86.60,94.20 104.94,99.33 103.13,76.51 101.88,60.69 95.63,74.41" fill="rgb(193,182,158)" stroke="#5a5443" stroke-opacity=".15" stroke-width=".45" stroke-linejoin="round"/><polygon points="127.47,133.51 136.92,127.56 127.46,99.22 125.11,92.18 125.58,100.40" fill="rgb(164,131,73)" stroke="#5a5443" stroke-opacity=".15" stroke-width=".45" stroke-linejoin="round"/><polygon points="108.13,73.36 101.88,60.69 103.13,76.51" fill="rgb(171,162,140)" stroke="#5a5443" stroke-opacity=".15" stroke-width=".45" stroke-linejoin="round"/><polygon points="125.58,100.40 125.11,92.18 122.76,99.61" fill="rgb(183,146,82)" stroke="#5a5443" stroke-opacity=".15" stroke-width=".45" stroke-linejoin="round"/></svg>