<svg xmlns="http://www.w3.org/2000/svg" viewBox="0 0 220 210"><rect width="220" height="210" fill="#f3efe6"/><polygon points="126.95,166.01 133.59,161.83 109.84,155.19 103.20,159.37 105.50,160.01 116.99,163.22" fill="rgb(196,185,161)" stroke="#5a5443" stroke-opacity=".15" stroke-width=".45" stroke-linejoin="round"/><polygon points="77.41,166.54 87.37,169.33 94.01,165.15 103.20,159.37 109.84,155.19 99.88,152.40" fill="rgb(196,185,161)" stroke="#5a5443" stroke-opacity=".15" stroke-width=".45" stroke-linejoin="round"/><polygon points="116.96,92.85 122.61,94.42 122.61,88.58 122.61,72.36 116.96,70.78" fill="rgb(161,91,74)" stroke="#5a5443" stroke-opacity=".15" stroke-width=".45" stroke-linejoin="round"/><polygon points="85.32,129.69 88.89,127.44 88.89,104.02 85.32,106.27 85.32,123.84" fill="rgb(148,83,67)" stroke="#5a5443" stroke-opacity=".15" stroke-width=".45" stroke-linejoin="round"/><polygon points="116.96,70.78 122.61,72.36 137.44,76.51 150.72,68.15 130.24,62.42" fill="rgb(169,96,78)" stroke="#5a5443" stroke-opacity=".15" stroke-width=".45" stroke-linejoin="round"/><polygon points="137.44,98.57 144.08,94.40 150.72,90.22 150.72,68.15 137.44,76.51 137.44,92.73" fill="rgb(148,83,67)" stroke="#5a5443" stroke-opacity=".15" stroke-width=".45" stroke-linejoin="round"/><polygon points="131.80,97.00 137.44,98.57 137.44,92.73 131.80,91.15" fill="rgb(161,91,74)" stroke="#5a5443" stroke-opacity=".15" stroke-width=".45" stroke-linejoin="round"/><polygon points="69.22,133.26 95.54,140.62 95.54,138.12 79.19,133.54 69.22,130.75" fill="rgb(90,102,111)" stroke="#5a5443" stroke-opacity=".15" stroke-width=".45" stroke-linejoin="round"/><polygon points="137.44,92.73 137.44,76.51 122.61,72.36 122.61,88.58 131.80,91.15" fill="rgb(161,91,74)" stroke="#5a5443" stroke-opacity=".15" stroke-width=".45" stroke-linejoin="round"/><polygon points="114.69,110.27 138.44,95.32 138.44,92.82 131.80,97.00 114.69,107.76" fill="rgb(83,93,101)" stroke="#5a5443" stroke-opacity=".15" stroke-width=".45" stroke-linejoin="round"/><polygon points="85.32,123.84 85.32,106.27 79.19,110.13 79.19,127.69" fill="rgb(148,83,67)" stroke="#5a5443" stroke-opacity=".15" stroke-width=".45" stroke-linejoin="round"/><polygon points="55.67,106.80 75.62,112.38 79.19,110.13 85.32,106.27 88.89,104.02 68.94,98.44" fill="rgb(169,96,78)" stroke="#5a5443" stroke-opacity=".15" stroke-width=".45" stroke-linejoin="round"/><polygon points="55.67,130.21 65.64,133.00 75.62,135.79 75.62,112.38 55.67,106.80" fill="rgb(161,91,74)" stroke="#5a5443" stroke-opacity=".15" stroke-width=".45" stroke-linejoin="round"/><polygon points="79.19,127.69 95.54,132.27 101.67,128.41 85.32,123.84" fill="rgb(95,107,117)" stroke="#5a5443" stroke-opacity=".15" stroke-width=".45" stroke-linejoin="round"/><polygon points="117.75,171.79 126.95,166.01 116.99,163.22 107.80,169.01" fill="rgb(196,185,161)" stroke="#5a5443" stroke-opacity=".15" stroke-width=".45" stroke-linejoin="round"/><polygon points="95.54,138.12 95.54,132.27 79.19,127.69 79.19,133.54" fill="rgb(90,102,111)" stroke="#5a5443" stroke-opacity=".15" stroke-width=".45" stroke-linejoin="round"/><polygon points="111.12,186.00 133.59,171.86 133.59,161.83 126.95,166.01 117.75,171.79 111.12,175.97" fill="rgb(171,162,140)" stroke="#5a5443" stroke-opacity=".15" stroke-width=".45" stroke-linejoin="round"/><polygon points="75.62,135.79 79.19,133.54 79.19,127.69 79.19,110.13 75.62,112.38" fill="rgb(148,83,67)" stroke="#5a5443" stroke-opacity=".15" stroke-width=".45" stroke-linejoin="round"/><polygon points="107.80,169.01 107.80,159.82 105.50,159.17 96.31,156.60 96.31,165.79" fill="rgb(90,102,111)" stroke="#5a5443" stroke-opacity=".15" stroke-width=".45" stroke-linejoin="round"/><polygon points="114.69,101.91 131.80,91.15 122.61,88.58 105.50,99.34" fill="rgb(95,107,117)" stroke="#5a5443" stroke-opacity=".15" stroke-width=".45" stroke-linejoin="round"/><polygon points="87.37,169.33 111.12,175.97 117.75,171.79 107.80,169.01 96.31,165.79 94.01,165.15" fill="rgb(196,185,161)" stroke="#5a5443" stroke-opacity=".15" stroke-width=".45" stroke-linejoin="round"/><polygon points="131.80,91.15 114.69,101.91 114.69,107.76 131.80,97.00" fill="rgb(83,93,101)" stroke="#5a5443" stroke-opacity=".15" stroke-width=".45" stroke-linejoin="round"/><polygon points="77.41,176.57 111.12,186.00 111.12,175.97 87.37,169.33 77.41,166.54" fill="rgb(187,176,153)" stroke="#5a5443" stroke-opacity=".15" stroke-width=".45" stroke-linejoin="round"/><polygon points="107.80,159.82 107.80,151.46 105.50,150.82 105.50,156.67 105.50,159.17" fill="rgb(90,102,111)" stroke="#5a5443" stroke-opacity=".15" stroke-width=".45" stroke-linejoin="round"/><polygon points="116.99,163.22 116.99,125.29 115.46,126.25 109.33,130.11 107.80,131.07 107.80,151.46 107.80,159.82 107.80,169.01" fill="rgb(83,93,101)" stroke="#5a5443" stroke-opacity=".15" stroke-width=".45" stroke-linejoin="round"/><polygon points="96.31,35.44 94.01,34.79 94.01,141.59 94.01,165.15 96.31,165.79 96.31,156.60 96.31,154.10 96.31,148.25" fill="rgb(90,102,111)" stroke="#5a5443" stroke-opacity=".15" stroke-width=".45" stroke-linejoin="round"/><polygon points="93.41,158.43 105.50,150.82 96.31,148.25 84.22,155.86" fill="rgb(95,107,117)" stroke="#5a5443" stroke-opacity=".15" stroke-width=".45" stroke-linejoin="round"/><polygon points="105.50,156.67 105.50,150.82 93.41,158.43 93.41,164.28" fill="rgb(83,93,101)" stroke="#5a5443" stroke-opacity=".15" stroke-width=".45" stroke-linejoin="round"/><polygon points="86.77,170.96 105.50,159.17 105.50,156.67 93.41,164.28 86.77,168.45" fill="rgb(83,93,101)" stroke="#5a5443" stroke-opacity=".15" stroke-width=".45" stroke-linejoin="round"/><polygon points="109.33,121.75 118.82,124.40 124.94,120.55 115.46,117.89" fill="rgb(95,107,117)" stroke="#5a5443" stroke-opacity=".15" stroke-width=".45" stroke-linejoin="round"/><polygon points="109.33,101.36 109.33,121.75 115.46,117.89 115.46,97.50" fill="rgb(83,93,101)" stroke="#5a5443" stroke-opacity=".15" stroke-width=".45" stroke-linejoin="round"/><polygon points="109.33,130.11 118.82,132.76 118.82,130.25 118.82,124.40 109.33,121.75" fill="rgb(90,102,111)" stroke="#5a5443" stroke-opacity=".15" stroke-width=".45" stroke-linejoin="round"/><polygon points="116.99,125.29 116.99,110.91 116.99,102.56 116.99,32.86 115.46,33.83 115.46,89.15 115.46,97.50 115.46,117.89 115.46,126.25" fill="rgb(83,93,101)" stroke="#5a5443" stroke-opacity=".15" stroke-width=".45" stroke-linejoin="round"/><polygon points="107.80,151.46 107.80,131.07 107.80,38.65 96.31,35.44 96.31,148.25 105.50,150.82" fill="rgb(90,102,111)" stroke="#5a5443" stroke-opacity=".15" stroke-width=".45" stroke-linejoin="round"/><polygon points="132.54,136.60 138.67,132.74 138.67,130.24 132.54,134.09" fill="rgb(83,93,101)" stroke="#5a5443" stroke-opacity=".15" stroke-width=".45" stroke-linejoin="round"/><polygon points="118.82,132.76 132.54,136.60 132.54,134.09 118.82,130.25" fill="rgb(90,102,111)" stroke="#5a5443" stroke-opacity=".15" stroke-width=".45" stroke-linejoin="round"/><polygon points="77.58,168.39 86.77,170.96 86.77,168.45 77.58,165.88" fill="rgb(90,102,111)" stroke="#5a5443" stroke-opacity=".15" stroke-width=".45" stroke-linejoin="round"/><polygon points="109.33,93.00 121.86,96.51 127.99,92.65 115.46,89.15" fill="rgb(95,107,117)" stroke="#5a5443" stroke-opacity=".15" stroke-width=".45" stroke-linejoin="round"/><polygon points="115.24,113.25 142.70,120.93 155.98,112.57 128.52,104.89 124.94,107.14 118.82,111.00" fill="rgb(196,185,161)" stroke="#5a5443" stroke-opacity=".15" stroke-width=".45" stroke-linejoin="round"/><polygon points="109.33,37.69 107.80,38.65 107.80,131.07 109.33,130.11 109.33,121.75 109.33,101.36 109.33,93.00" fill="rgb(83,93,101)" stroke="#5a5443" stroke-opacity=".15" stroke-width=".45" stroke-linejoin="round"/><polygon points="109.33,101.36 121.86,104.87 121.86,102.36 121.86,96.51 109.33,93.00" fill="rgb(90,102,111)" stroke="#5a5443" stroke-opacity=".15" stroke-width=".45" stroke-linejoin="round"/><polygon points="63.02,141.47 88.05,148.47 101.33,140.12 84.22,135.33 76.30,133.11" fill="rgb(196,185,161)" stroke="#5a5443" stroke-opacity=".15" stroke-width=".45" stroke-linejoin="round"/><polygon points="88.05,174.85 94.69,170.67 101.33,166.49 101.33,160.64 101.33,140.12 88.05,148.47" fill="rgb(171,162,140)" stroke="#5a5443" stroke-opacity=".15" stroke-width=".45" stroke-linejoin="round"/><polygon points="142.70,140.18 146.27,137.93 152.40,134.08 155.98,131.83 155.98,112.57 142.70,120.93" fill="rgb(171,162,140)" stroke="#5a5443" stroke-opacity=".15" stroke-width=".45" stroke-linejoin="round"/><polygon points="115.24,132.50 142.70,140.18 142.70,120.93 115.24,113.25" fill="rgb(187,176,153)" stroke="#5a5443" stroke-opacity=".15" stroke-width=".45" stroke-linejoin="round"/><polygon points="63.02,167.85 70.94,170.06 88.05,174.85 88.05,148.47 63.02,141.47" fill="rgb(187,176,153)" stroke="#5a5443" stroke-opacity=".15" stroke-width=".45" stroke-linejoin="round"/><polygon points="121.86,104.87 135.73,108.75 135.73,106.24 121.86,102.36" fill="rgb(90,102,111)" stroke="#5a5443" stroke-opacity=".15" stroke-width=".45" stroke-linejoin="round"/><polygon points="135.73,108.75 141.86,104.89 141.86,102.38 135.73,106.24" fill="rgb(83,93,101)" stroke="#5a5443" stroke-opacity=".15" stroke-width=".45" stroke-linejoin="round"/><polygon points="115.46,33.83 109.33,37.69 109.33,93.00 115.46,89.15" fill="rgb(83,93,101)" stroke="#5a5443" stroke-opacity=".15" stroke-width=".45" stroke-linejoin="round"/><polygon points="94.01,34.79 96.31,35.44 107.80,38.65 109.33,37.69 115.46,33.83 116.99,32.86 105.50,29.65 103.20,29.01 101.67,29.97 95.54,33.83" fill="rgb(95,107,117)" stroke="#5a5443" stroke-opacity=".15" stroke-width=".45" stroke-linejoin="round"/><polygon points="118.28,74.79 146.04,82.56 159.31,74.20 131.56,66.44 127.99,68.69 121.86,72.54" fill="rgb(196,185,161)" stroke="#5a5443" stroke-opacity=".15" stroke-width=".45" stroke-linejoin="round"/><polygon points="146.04,112.37 149.61,110.12 155.74,106.27 159.31,104.02 159.31,74.20 146.04,82.56" fill="rgb(171,162,140)" stroke="#5a5443" stroke-opacity=".15" stroke-width=".45" stroke-linejoin="round"/><polygon points="118.28,104.61 146.04,112.37 146.04,82.56 118.28,74.79" fill="rgb(187,176,153)" stroke="#5a5443" stroke-opacity=".15" stroke-width=".45" stroke-linejoin="round"/></svg>