<svg xmlns="http://www.w3.org/2000/svg" viewBox="0 0 220 210"><rect width="220" height="210" fill="#f3efe6"/><polygon points="90.93,118.26 91.28,118.04 81.49,115.30 81.15,115.52" fill="rgb(95,107,117)" stroke="#5a5443" stroke-opacity=".15" stroke-width=".45" stroke-linejoin="round"/><polygon points="85.45,150.29 91.28,146.63 91.28,119.95 90.93,120.17 85.45,123.61" fill="rgb(83,93,101)" stroke="#5a5443" stroke-opacity=".15" stroke-width=".45" stroke-linejoin="round"/><polygon points="75.67,147.56 85.45,150.29 85.45,123.61 75.67,120.87" fill="rgb(90,102,111)" stroke="#5a5443" stroke-opacity=".15" stroke-width=".45" stroke-linejoin="round"/><polygon points="91.28,119.95 91.28,118.04 90.93,118.26 90.93,120.17" fill="rgb(83,93,101)" stroke="#5a5443" stroke-opacity=".15" stroke-width=".45" stroke-linejoin="round"/><polygon points="71.94,158.80 77.77,155.13 77.77,128.45 72.29,131.89 71.94,132.11" fill="rgb(83,93,101)" stroke="#5a5443" stroke-opacity=".15" stroke-width=".45" stroke-linejoin="round"/><polygon points="125.87,128.03 126.22,127.81 116.43,125.08 116.09,125.30" fill="rgb(95,107,117)" stroke="#5a5443" stroke-opacity=".15" stroke-width=".45" stroke-linejoin="round"/><polygon points="120.39,160.07 126.22,156.40 126.22,129.72 125.87,129.94 120.39,133.38" fill="rgb(83,93,101)" stroke="#5a5443" stroke-opacity=".15" stroke-width=".45" stroke-linejoin="round"/><polygon points="62.16,156.06 71.94,158.80 71.94,132.11 71.94,130.21 62.16,127.47 62.16,129.38" fill="rgb(90,102,111)" stroke="#5a5443" stroke-opacity=".15" stroke-width=".45" stroke-linejoin="round"/><polygon points="110.61,157.33 120.39,160.07 120.39,133.38 110.61,130.65" fill="rgb(90,102,111)" stroke="#5a5443" stroke-opacity=".15" stroke-width=".45" stroke-linejoin="round"/><polygon points="126.22,129.72 126.22,127.81 125.87,128.03 125.87,129.94" fill="rgb(83,93,101)" stroke="#5a5443" stroke-opacity=".15" stroke-width=".45" stroke-linejoin="round"/><polygon points="137.14,97.62 140.05,95.79 81.15,79.31 66.96,75.34 64.05,77.18 78.03,81.09" fill="rgb(112,145,118)" stroke="#5a5443" stroke-opacity=".15" stroke-width=".45" stroke-linejoin="round"/><polygon points="48.33,125.19 62.51,129.16 62.51,127.25 62.51,91.04 48.33,87.07 48.33,101.89" fill="rgb(106,138,112)" stroke="#5a5443" stroke-opacity=".15" stroke-width=".45" stroke-linejoin="round"/><polygon points="62.16,127.47 71.94,130.21 72.29,129.99 62.51,127.25" fill="rgb(95,107,117)" stroke="#5a5443" stroke-opacity=".15" stroke-width=".45" stroke-linejoin="round"/><polygon points="47.75,99.08 51.24,100.06 51.24,85.24 51.24,59.51 47.75,58.53" fill="rgb(106,138,112)" stroke="#5a5443" stroke-opacity=".15" stroke-width=".45" stroke-linejoin="round"/><polygon points="72.29,129.99 71.94,130.21 71.94,132.11 72.29,131.89" fill="rgb(83,93,101)" stroke="#5a5443" stroke-opacity=".15" stroke-width=".45" stroke-linejoin="round"/><polygon points="76.60,83.12 75.35,82.77 65.22,89.15 66.47,89.50 69.15,87.81" fill="rgb(112,145,118)" stroke="#5a5443" stroke-opacity=".15" stroke-width=".45" stroke-linejoin="round"/><polygon points="75.58,54.67 77.33,53.57 77.33,28.80 75.58,29.90 75.58,42.71" fill="rgb(171,162,140)" stroke="#5a5443" stroke-opacity=".15" stroke-width=".45" stroke-linejoin="round"/><polygon points="78.03,81.09 78.03,55.36 78.03,43.40 65.22,51.46 65.22,63.42 65.22,89.15 75.35,82.77" fill="rgb(97,126,102)" stroke="#5a5443" stroke-opacity=".15" stroke-width=".45" stroke-linejoin="round"/><polygon points="72.29,131.89 97.45,138.93 97.45,137.02 72.29,129.99" fill="rgb(106,138,112)" stroke="#5a5443" stroke-opacity=".15" stroke-width=".45" stroke-linejoin="round"/><polygon points="80.33,90.94 87.78,86.25 78.47,60.39" fill="rgb(171,162,140)" stroke="#5a5443" stroke-opacity=".15" stroke-width=".45" stroke-linejoin="round"/><polygon points="134.46,99.31 136.56,97.99 137.14,97.62 78.03,81.09 75.35,82.77 76.60,83.12 87.78,86.25 90.58,87.03 101.76,90.16 104.56,90.94 115.74,94.07" fill="rgb(112,145,118)" stroke="#5a5443" stroke-opacity=".15" stroke-width=".45" stroke-linejoin="round"/><polygon points="69.15,87.81 66.47,89.50 77.65,92.63 80.33,90.94" fill="rgb(112,145,118)" stroke="#5a5443" stroke-opacity=".15" stroke-width=".45" stroke-linejoin="round"/><polygon points="90.58,87.03 87.78,86.25 80.33,90.94 77.65,92.63 80.45,93.41 83.13,91.72" fill="rgb(112,145,118)" stroke="#5a5443" stroke-opacity=".15" stroke-width=".45" stroke-linejoin="round"/><polygon points="69.15,87.81 80.33,90.94 78.47,60.39" fill="rgb(191,181,157)" stroke="#5a5443" stroke-opacity=".15" stroke-width=".45" stroke-linejoin="round"/><polygon points="65.22,89.15 65.22,63.42 62.77,62.74 51.24,59.51 51.24,85.24" fill="rgb(106,138,112)" stroke="#5a5443" stroke-opacity=".15" stroke-width=".45" stroke-linejoin="round"/><polygon points="106.88,168.57 112.71,164.90 112.71,138.22 107.23,141.67 106.88,141.89" fill="rgb(83,93,101)" stroke="#5a5443" stroke-opacity=".15" stroke-width=".45" stroke-linejoin="round"/><polygon points="29.58,30.26 61.02,39.06 62.77,37.96 75.58,29.90 77.33,28.80 45.88,20.00" fill="rgb(196,185,161)" stroke="#5a5443" stroke-opacity=".15" stroke-width=".45" stroke-linejoin="round"/><polygon points="97.10,165.83 106.88,168.57 106.88,141.89 106.88,139.98 97.10,137.24 97.10,139.15" fill="rgb(90,102,111)" stroke="#5a5443" stroke-opacity=".15" stroke-width=".45" stroke-linejoin="round"/><polygon points="29.58,55.04 46.00,59.63 61.02,63.84 61.02,39.06 29.58,30.26" fill="rgb(187,176,153)" stroke="#5a5443" stroke-opacity=".15" stroke-width=".45" stroke-linejoin="round"/><polygon points="62.77,50.78 65.22,51.46 78.03,43.40 75.58,42.71" fill="rgb(112,145,118)" stroke="#5a5443" stroke-opacity=".15" stroke-width=".45" stroke-linejoin="round"/><polygon points="94.31,94.85 101.76,90.16 92.44,73.97" fill="rgb(171,162,140)" stroke="#5a5443" stroke-opacity=".15" stroke-width=".45" stroke-linejoin="round"/><polygon points="83.13,91.72 94.31,94.85 92.44,73.97" fill="rgb(194,183,159)" stroke="#5a5443" stroke-opacity=".15" stroke-width=".45" stroke-linejoin="round"/><polygon points="75.58,42.71 75.58,29.90 62.77,37.96 62.77,50.78" fill="rgb(171,162,140)" stroke="#5a5443" stroke-opacity=".15" stroke-width=".45" stroke-linejoin="round"/><polygon points="83.13,91.72 80.45,93.41 91.63,96.54 94.31,94.85" fill="rgb(112,145,118)" stroke="#5a5443" stroke-opacity=".15" stroke-width=".45" stroke-linejoin="round"/><polygon points="121.42,145.63 126.89,142.19 134.58,137.35 140.05,133.91 140.05,132.00 140.05,126.47 136.56,128.67 124.91,136.00 121.42,138.20 121.42,143.73" fill="rgb(97,126,102)" stroke="#5a5443" stroke-opacity=".15" stroke-width=".45" stroke-linejoin="round"/><polygon points="104.56,90.94 101.76,90.16 94.31,94.85 91.63,96.54 94.42,97.32 97.10,95.63" fill="rgb(112,145,118)" stroke="#5a5443" stroke-opacity=".15" stroke-width=".45" stroke-linejoin="round"/><polygon points="140.05,126.47 140.05,95.79 137.14,97.62 136.56,97.99 136.56,111.52 136.56,128.67" fill="rgb(97,126,102)" stroke="#5a5443" stroke-opacity=".15" stroke-width=".45" stroke-linejoin="round"/><polygon points="97.10,137.24 106.88,139.98 107.23,139.76 97.45,137.02" fill="rgb(95,107,117)" stroke="#5a5443" stroke-opacity=".15" stroke-width=".45" stroke-linejoin="round"/><polygon points="48.33,87.07 62.51,91.04 121.42,107.52 124.33,105.68 105.60,100.45 94.42,97.32 91.63,96.54 80.45,93.41 77.65,92.63 66.47,89.50 65.22,89.15 51.24,85.24" fill="rgb(112,145,118)" stroke="#5a5443" stroke-opacity=".15" stroke-width=".45" stroke-linejoin="round"/><polygon points="121.42,143.73 121.42,138.20 121.42,107.52 62.51,91.04 62.51,127.25 72.29,129.99 97.45,137.02 107.23,139.76" fill="rgb(106,138,112)" stroke="#5a5443" stroke-opacity=".15" stroke-width=".45" stroke-linejoin="round"/><polygon points="65.22,63.42 65.22,51.46 62.77,50.78 62.77,62.74" fill="rgb(106,138,112)" stroke="#5a5443" stroke-opacity=".15" stroke-width=".45" stroke-linejoin="round"/><polygon points="107.23,139.76 106.88,139.98 106.88,141.89 107.23,141.67" fill="rgb(83,93,101)" stroke="#5a5443" stroke-opacity=".15" stroke-width=".45" stroke-linejoin="round"/><polygon points="61.02,63.84 62.77,62.74 62.77,50.78 62.77,37.96 61.02,39.06" fill="rgb(171,162,140)" stroke="#5a5443" stroke-opacity=".15" stroke-width=".45" stroke-linejoin="round"/><polygon points="108.28,98.76 115.74,94.07 106.42,72.09" fill="rgb(171,162,140)" stroke="#5a5443" stroke-opacity=".15" stroke-width=".45" stroke-linejoin="round"/><polygon points="107.23,141.67 121.42,145.63 121.42,143.73 107.23,139.76" fill="rgb(106,138,112)" stroke="#5a5443" stroke-opacity=".15" stroke-width=".45" stroke-linejoin="round"/><polygon points="97.10,95.63 108.28,98.76 106.42,72.09" fill="rgb(192,182,158)" stroke="#5a5443" stroke-opacity=".15" stroke-width=".45" stroke-linejoin="round"/><polygon points="97.10,95.63 94.42,97.32 105.60,100.45 108.28,98.76" fill="rgb(112,145,118)" stroke="#5a5443" stroke-opacity=".15" stroke-width=".45" stroke-linejoin="round"/><polygon points="153.15,125.69 153.15,116.16 151.99,116.89 151.99,126.42" fill="rgb(97,126,102)" stroke="#5a5443" stroke-opacity=".15" stroke-width=".45" stroke-linejoin="round"/><polygon points="151.99,116.89 153.15,116.16 151.41,115.67 150.24,116.41" fill="rgb(112,145,118)" stroke="#5a5443" stroke-opacity=".15" stroke-width=".45" stroke-linejoin="round"/><polygon points="136.56,97.99 134.46,99.31 124.91,105.32 124.91,118.85 136.56,111.52" fill="rgb(97,126,102)" stroke="#5a5443" stroke-opacity=".15" stroke-width=".45" stroke-linejoin="round"/><polygon points="124.33,105.68 124.91,105.32 134.46,99.31 115.74,94.07 108.28,98.76 105.60,100.45" fill="rgb(112,145,118)" stroke="#5a5443" stroke-opacity=".15" stroke-width=".45" stroke-linejoin="round"/><polygon points="141.51,140.64 153.15,133.31 153.15,125.69 151.99,126.42 142.67,132.29 141.51,133.02" fill="rgb(97,126,102)" stroke="#5a5443" stroke-opacity=".15" stroke-width=".45" stroke-linejoin="round"/><polygon points="124.91,118.85 139.76,123.00 140.92,122.27 150.24,116.41 151.41,115.67 136.56,111.52" fill="rgb(112,145,118)" stroke="#5a5443" stroke-opacity=".15" stroke-width=".45" stroke-linejoin="round"/><polygon points="124.91,105.32 124.33,105.68 121.42,107.52 121.42,138.20 124.91,136.00 124.91,118.85" fill="rgb(97,126,102)" stroke="#5a5443" stroke-opacity=".15" stroke-width=".45" stroke-linejoin="round"/><polygon points="124.91,136.00 141.51,140.64 141.51,133.02 141.51,123.49 139.76,123.00 124.91,118.85" fill="rgb(106,138,112)" stroke="#5a5443" stroke-opacity=".15" stroke-width=".45" stroke-linejoin="round"/><polygon points="142.67,122.76 141.51,123.49 141.51,133.02 142.67,132.29" fill="rgb(97,126,102)" stroke="#5a5443" stroke-opacity=".15" stroke-width=".45" stroke-linejoin="round"/><polygon points="169.46,123.69 169.46,121.78 169.46,117.97 168.29,118.70 168.29,124.42" fill="rgb(97,126,102)" stroke="#5a5443" stroke-opacity=".15" stroke-width=".45" stroke-linejoin="round"/><polygon points="168.29,118.70 169.46,117.97 167.71,117.48 166.55,118.21" fill="rgb(112,145,118)" stroke="#5a5443" stroke-opacity=".15" stroke-width=".45" stroke-linejoin="round"/><polygon points="139.76,123.00 141.51,123.49 142.67,122.76 140.92,122.27" fill="rgb(112,145,118)" stroke="#5a5443" stroke-opacity=".15" stroke-width=".45" stroke-linejoin="round"/><polygon points="140.92,118.46 158.39,123.35 159.56,122.61 166.55,118.21 167.71,117.48 150.24,112.59" fill="rgb(112,145,118)" stroke="#5a5443" stroke-opacity=".15" stroke-width=".45" stroke-linejoin="round"/><polygon points="160.14,137.18 169.46,131.31 169.46,123.69 168.29,124.42 161.31,128.82 160.14,129.55" fill="rgb(97,126,102)" stroke="#5a5443" stroke-opacity=".15" stroke-width=".45" stroke-linejoin="round"/><polygon points="142.67,132.29 160.14,137.18 160.14,129.55 160.14,127.65 142.67,122.76" fill="rgb(106,138,112)" stroke="#5a5443" stroke-opacity=".15" stroke-width=".45" stroke-linejoin="round"/><polygon points="160.14,127.65 160.14,123.83 158.39,123.35 140.92,118.46 140.92,122.27 142.67,122.76" fill="rgb(106,138,112)" stroke="#5a5443" stroke-opacity=".15" stroke-width=".45" stroke-linejoin="round"/><polygon points="161.31,123.10 160.14,123.83 160.14,127.65 160.14,129.55 161.31,128.82" fill="rgb(97,126,102)" stroke="#5a5443" stroke-opacity=".15" stroke-width=".45" stroke-linejoin="round"/><polygon points="158.39,123.35 160.14,123.83 161.31,123.10 159.56,122.61" fill="rgb(112,145,118)" stroke="#5a5443" stroke-opacity=".15" stroke-width=".45" stroke-linejoin="round"/><polygon points="159.56,118.80 178.78,124.18 185.76,119.78 166.55,114.40" fill="rgb(112,145,118)" stroke="#5a5443" stroke-opacity=".15" stroke-width=".45" stroke-linejoin="round"/><polygon points="161.31,128.82 178.78,133.71 178.78,127.99 161.31,123.10" fill="rgb(106,138,112)" stroke="#5a5443" stroke-opacity=".15" stroke-width=".45" stroke-linejoin="round"/><polygon points="178.78,127.99 178.78,124.18 159.56,118.80 159.56,122.61 161.31,123.10" fill="rgb(106,138,112)" stroke="#5a5443" stroke-opacity=".15" stroke-width=".45" stroke-linejoin="round"/><polygon points="178.78,133.71 185.76,129.31 185.76,123.59 185.76,119.78 178.78,124.18 178.78,127.99" fill="rgb(97,126,102)" stroke="#5a5443" stroke-opacity=".15" stroke-width=".45" stroke-linejoin="round"/></svg>