<svg xmlns="http://www.w3.org/2000/svg" viewBox="0 0 220 210"><rect width="220" height="210" fill="#f3efe6"/><polygon points="94.85,124.99 98.47,122.72 96.44,122.15 92.82,124.42" fill="rgb(196,185,161)" stroke="#5a5443" stroke-opacity=".15" stroke-width=".45" stroke-linejoin="round"/><polygon points="100.05,127.27 100.96,126.70 100.96,95.04 100.05,95.60 100.05,116.91" fill="rgb(83,93,101)" stroke="#5a5443" stroke-opacity=".15" stroke-width=".45" stroke-linejoin="round"/><polygon points="96.89,120.14 101.41,117.29 100.05,116.91 95.53,119.76" fill="rgb(107,142,143)" stroke="#5a5443" stroke-opacity=".15" stroke-width=".45" stroke-linejoin="round"/><polygon points="87.39,127.84 89.43,128.41 89.43,118.05 89.43,96.74 87.39,96.17" fill="rgb(90,102,111)" stroke="#5a5443" stroke-opacity=".15" stroke-width=".45" stroke-linejoin="round"/><polygon points="100.05,116.91 100.05,95.60 95.53,98.45 95.53,119.76" fill="rgb(83,93,101)" stroke="#5a5443" stroke-opacity=".15" stroke-width=".45" stroke-linejoin="round"/><polygon points="95.53,119.76 95.53,98.45 89.43,96.74 89.43,118.05" fill="rgb(90,102,111)" stroke="#5a5443" stroke-opacity=".15" stroke-width=".45" stroke-linejoin="round"/><polygon points="95.53,98.45 100.05,95.60 100.96,95.04 94.18,83.77" fill="rgb(93,124,125)" stroke="#5a5443" stroke-opacity=".15" stroke-width=".45" stroke-linejoin="round"/><polygon points="160.64,143.39 100.96,126.70 100.05,127.27 159.73,143.96" fill="rgb(196,185,161)" stroke="#5a5443" stroke-opacity=".15" stroke-width=".45" stroke-linejoin="round"/><polygon points="87.39,96.17 89.43,96.74 95.53,98.45 94.18,83.77" fill="rgb(106,141,142)" stroke="#5a5443" stroke-opacity=".15" stroke-width=".45" stroke-linejoin="round"/><polygon points="174.20,147.19 177.82,144.91 98.47,122.72 94.85,124.99 100.96,126.70 160.64,143.39 168.77,145.67" fill="rgb(196,185,161)" stroke="#5a5443" stroke-opacity=".15" stroke-width=".45" stroke-linejoin="round"/><polygon points="42.18,151.36 47.61,152.88 51.23,150.60 56.65,147.19 87.39,127.84 92.82,124.42 96.44,122.15 91.01,120.63" fill="rgb(196,185,161)" stroke="#5a5443" stroke-opacity=".15" stroke-width=".45" stroke-linejoin="round"/><polygon points="58.69,147.76 89.43,128.41 87.39,127.84 56.65,147.19" fill="rgb(196,185,161)" stroke="#5a5443" stroke-opacity=".15" stroke-width=".45" stroke-linejoin="round"/><polygon points="159.73,133.60 101.41,117.29 96.89,120.14 153.85,136.07 155.21,136.45" fill="rgb(107,142,143)" stroke="#5a5443" stroke-opacity=".15" stroke-width=".45" stroke-linejoin="round"/><polygon points="66.15,139.49 96.89,120.14 95.53,119.76 89.43,118.05 58.69,137.40 64.79,139.11" fill="rgb(107,142,143)" stroke="#5a5443" stroke-opacity=".15" stroke-width=".45" stroke-linejoin="round"/><polygon points="66.15,129.13 73.61,131.21 78.13,128.37 99.83,114.71 104.35,111.87 96.89,109.78" fill="rgb(196,185,161)" stroke="#5a5443" stroke-opacity=".15" stroke-width=".45" stroke-linejoin="round"/><polygon points="149.33,128.56 153.85,125.71 104.35,111.87 99.83,114.71 141.87,126.47" fill="rgb(196,185,161)" stroke="#5a5443" stroke-opacity=".15" stroke-width=".45" stroke-linejoin="round"/><polygon points="173.30,147.76 174.20,147.19 168.77,145.67 167.87,146.24" fill="rgb(196,185,161)" stroke="#5a5443" stroke-opacity=".15" stroke-width=".45" stroke-linejoin="round"/><polygon points="168.77,150.60 173.30,147.76 167.87,146.24 163.35,149.08" fill="rgb(196,185,161)" stroke="#5a5443" stroke-opacity=".15" stroke-width=".45" stroke-linejoin="round"/><polygon points="161.31,148.52 163.35,149.08 163.35,138.73 161.31,138.16" fill="rgb(90,102,111)" stroke="#5a5443" stroke-opacity=".15" stroke-width=".45" stroke-linejoin="round"/><polygon points="78.13,118.01 84.23,119.72 86.49,118.30 103.67,107.48 105.93,106.06 99.83,104.35" fill="rgb(107,142,143)" stroke="#5a5443" stroke-opacity=".15" stroke-width=".45" stroke-linejoin="round"/><polygon points="163.35,149.08 167.87,146.24 168.77,145.67 168.77,112.93 163.35,116.34 163.35,138.73" fill="rgb(83,93,101)" stroke="#5a5443" stroke-opacity=".15" stroke-width=".45" stroke-linejoin="round"/><polygon points="139.61,117.54 141.87,116.11 105.93,106.06 103.67,107.48 133.51,115.83" fill="rgb(107,142,143)" stroke="#5a5443" stroke-opacity=".15" stroke-width=".45" stroke-linejoin="round"/><polygon points="47.61,152.88 49.64,153.45 53.26,151.17 51.23,150.60" fill="rgb(196,185,161)" stroke="#5a5443" stroke-opacity=".15" stroke-width=".45" stroke-linejoin="round"/><polygon points="163.35,138.73 163.35,116.34 155.21,114.07 155.21,136.45 161.31,138.16" fill="rgb(90,102,111)" stroke="#5a5443" stroke-opacity=".15" stroke-width=".45" stroke-linejoin="round"/><polygon points="60.27,141.95 61.62,142.33 66.15,139.49 64.79,139.11" fill="rgb(107,142,143)" stroke="#5a5443" stroke-opacity=".15" stroke-width=".45" stroke-linejoin="round"/><polygon points="51.23,150.60 53.26,151.17 59.36,152.88 59.36,126.66 51.23,124.38" fill="rgb(90,102,111)" stroke="#5a5443" stroke-opacity=".15" stroke-width=".45" stroke-linejoin="round"/><polygon points="64.79,139.11 64.79,123.24 60.27,126.09 60.27,141.95" fill="rgb(83,93,101)" stroke="#5a5443" stroke-opacity=".15" stroke-width=".45" stroke-linejoin="round"/><polygon points="163.35,116.34 168.77,112.93 161.99,101.66" fill="rgb(93,124,125)" stroke="#5a5443" stroke-opacity=".15" stroke-width=".45" stroke-linejoin="round"/><polygon points="155.21,114.07 163.35,116.34 161.99,101.66" fill="rgb(106,141,142)" stroke="#5a5443" stroke-opacity=".15" stroke-width=".45" stroke-linejoin="round"/><polygon points="59.36,152.88 60.27,152.31 60.27,141.95 60.27,126.09 59.36,126.66" fill="rgb(83,93,101)" stroke="#5a5443" stroke-opacity=".15" stroke-width=".45" stroke-linejoin="round"/><polygon points="59.36,126.66 60.27,126.09 64.79,123.24 58.01,111.97" fill="rgb(93,124,125)" stroke="#5a5443" stroke-opacity=".15" stroke-width=".45" stroke-linejoin="round"/><polygon points="51.23,124.38 59.36,126.66 58.01,111.97" fill="rgb(106,141,142)" stroke="#5a5443" stroke-opacity=".15" stroke-width=".45" stroke-linejoin="round"/><polygon points="138.03,169.95 168.77,150.60 163.35,149.08 161.31,148.52 130.57,167.86 132.61,168.43" fill="rgb(196,185,161)" stroke="#5a5443" stroke-opacity=".15" stroke-width=".45" stroke-linejoin="round"/><polygon points="130.57,157.51 161.31,138.16 155.21,136.45 153.85,136.07 123.11,155.42 124.47,155.80" fill="rgb(107,142,143)" stroke="#5a5443" stroke-opacity=".15" stroke-width=".45" stroke-linejoin="round"/><polygon points="130.57,167.86 161.31,148.52 161.31,138.16 130.57,157.51" fill="rgb(93,124,125)" stroke="#5a5443" stroke-opacity=".15" stroke-width=".45" stroke-linejoin="round"/><polygon points="42.18,161.72 128.99,186.00 128.99,175.64 49.64,153.45 47.61,152.88 42.18,151.36" fill="rgb(187,176,153)" stroke="#5a5443" stroke-opacity=".15" stroke-width=".45" stroke-linejoin="round"/><polygon points="127.63,142.22 149.33,128.56 141.87,126.47 120.17,140.13" fill="rgb(196,185,161)" stroke="#5a5443" stroke-opacity=".15" stroke-width=".45" stroke-linejoin="round"/><polygon points="123.11,155.42 153.85,136.07 153.85,125.71 149.33,128.56 127.63,142.22 123.11,145.06" fill="rgb(171,162,140)" stroke="#5a5443" stroke-opacity=".15" stroke-width=".45" stroke-linejoin="round"/><polygon points="122.43,128.35 139.61,117.54 133.51,115.83 116.33,126.64" fill="rgb(107,142,143)" stroke="#5a5443" stroke-opacity=".15" stroke-width=".45" stroke-linejoin="round"/><polygon points="128.99,186.00 177.82,155.27 177.82,144.91 174.20,147.19 173.30,147.76 168.77,150.60 138.03,169.95 133.51,172.80 132.61,173.37 128.99,175.64" fill="rgb(171,162,140)" stroke="#5a5443" stroke-opacity=".15" stroke-width=".45" stroke-linejoin="round"/><polygon points="78.13,128.37 120.17,140.13 120.17,129.77 84.23,119.72 78.13,118.01" fill="rgb(102,135,136)" stroke="#5a5443" stroke-opacity=".15" stroke-width=".45" stroke-linejoin="round"/><polygon points="120.17,140.13 141.87,126.47 141.87,116.11 139.61,117.54 122.43,128.35 120.17,129.77" fill="rgb(93,124,125)" stroke="#5a5443" stroke-opacity=".15" stroke-width=".45" stroke-linejoin="round"/><polygon points="66.15,139.49 123.11,155.42 123.11,145.06 73.61,131.21 66.15,129.13" fill="rgb(187,176,153)" stroke="#5a5443" stroke-opacity=".15" stroke-width=".45" stroke-linejoin="round"/><polygon points="135.54,86.81 138.26,85.10 131.48,76.08 134.35,83.66" fill="rgb(94,125,126)" stroke="#5a5443" stroke-opacity=".15" stroke-width=".45" stroke-linejoin="round"/><polygon points="60.27,152.31 119.95,169.00 119.95,158.65 61.62,142.33 60.27,141.95" fill="rgb(102,135,136)" stroke="#5a5443" stroke-opacity=".15" stroke-width=".45" stroke-linejoin="round"/><polygon points="119.95,169.00 60.27,152.31 59.36,152.88 119.04,169.57" fill="rgb(196,185,161)" stroke="#5a5443" stroke-opacity=".15" stroke-width=".45" stroke-linejoin="round"/><polygon points="133.51,115.83 133.51,86.24 116.33,97.05 116.33,126.64" fill="rgb(171,162,140)" stroke="#5a5443" stroke-opacity=".15" stroke-width=".45" stroke-linejoin="round"/><polygon points="84.23,119.72 120.17,129.77 122.43,128.35 116.33,126.64 86.49,118.30" fill="rgb(107,142,143)" stroke="#5a5443" stroke-opacity=".15" stroke-width=".45" stroke-linejoin="round"/><polygon points="73.61,131.21 123.11,145.06 127.63,142.22 120.17,140.13 78.13,128.37" fill="rgb(196,185,161)" stroke="#5a5443" stroke-opacity=".15" stroke-width=".45" stroke-linejoin="round"/><polygon points="61.62,142.33 119.95,158.65 124.47,155.80 123.11,155.42 66.15,139.49" fill="rgb(107,142,143)" stroke="#5a5443" stroke-opacity=".15" stroke-width=".45" stroke-linejoin="round"/><polygon points="116.33,126.64 116.33,97.05 86.49,88.70 86.49,118.30" fill="rgb(187,176,153)" stroke="#5a5443" stroke-opacity=".15" stroke-width=".45" stroke-linejoin="round"/><polygon points="81.74,89.84 83.78,90.41 85.13,84.76" fill="rgb(107,142,143)" stroke="#5a5443" stroke-opacity=".15" stroke-width=".45" stroke-linejoin="round"/><polygon points="49.64,153.45 128.99,175.64 132.61,173.37 127.18,171.85 119.04,169.57 59.36,152.88 53.26,151.17" fill="rgb(196,185,161)" stroke="#5a5443" stroke-opacity=".15" stroke-width=".45" stroke-linejoin="round"/><polygon points="118.36,97.62 135.54,86.81 134.35,83.66 117.17,94.47" fill="rgb(94,125,126)" stroke="#5a5443" stroke-opacity=".15" stroke-width=".45" stroke-linejoin="round"/><polygon points="134.35,83.66 131.48,76.08 110.00,47.51 114.30,86.89 117.17,94.47" fill="rgb(94,125,126)" stroke="#5a5443" stroke-opacity=".15" stroke-width=".45" stroke-linejoin="round"/><polygon points="83.78,90.41 115.65,99.33 114.30,86.89 88.52,79.68 85.13,84.76" fill="rgb(107,142,143)" stroke="#5a5443" stroke-opacity=".15" stroke-width=".45" stroke-linejoin="round"/><polygon points="114.30,86.89 110.00,47.51 88.52,79.68" fill="rgb(107,142,143)" stroke="#5a5443" stroke-opacity=".15" stroke-width=".45" stroke-linejoin="round"/><polygon points="133.51,172.80 138.03,169.95 132.61,168.43 128.08,171.28" fill="rgb(196,185,161)" stroke="#5a5443" stroke-opacity=".15" stroke-width=".45" stroke-linejoin="round"/><polygon points="115.65,99.33 118.36,97.62 117.17,94.47 114.30,86.89" fill="rgb(94,125,126)" stroke="#5a5443" stroke-opacity=".15" stroke-width=".45" stroke-linejoin="round"/><polygon points="132.61,173.37 133.51,172.80 128.08,171.28 127.18,171.85" fill="rgb(196,185,161)" stroke="#5a5443" stroke-opacity=".15" stroke-width=".45" stroke-linejoin="round"/><polygon points="127.18,171.85 128.08,171.28 132.61,168.43 132.61,158.08 132.61,140.81 127.18,144.22" fill="rgb(83,93,101)" stroke="#5a5443" stroke-opacity=".15" stroke-width=".45" stroke-linejoin="round"/><polygon points="119.04,169.57 127.18,171.85 127.18,144.22 119.04,141.94" fill="rgb(90,102,111)" stroke="#5a5443" stroke-opacity=".15" stroke-width=".45" stroke-linejoin="round"/><polygon points="127.18,144.22 132.61,140.81 125.82,129.54" fill="rgb(93,124,125)" stroke="#5a5443" stroke-opacity=".15" stroke-width=".45" stroke-linejoin="round"/><polygon points="119.04,141.94 127.18,144.22 125.82,129.54" fill="rgb(106,141,142)" stroke="#5a5443" stroke-opacity=".15" stroke-width=".45" stroke-linejoin="round"/></svg>